<svg width="11" height="11" fill="none" xmlns="http://www.w3.org/2000/svg"><g clip-path="url(#clip0)"><path d="M8.555 5.93L3.66 10.823a.597.597 0 01-.425.176.597.597 0 01-.426-.176l-.36-.36a.603.603 0 010-.851l4.11-4.11-4.115-4.116A.598.598 0 012.27.962c0-.162.062-.313.175-.426l.36-.36A.597.597 0 013.23 0c.161 0 .313.062.426.176l4.9 4.9a.598.598 0 01.175.426.598.598 0 01-.176.427z" fill="#fff"/></g><defs><clipPath id="clip0"><path fill="#fff" transform="matrix(1 0 0 -1 0 11)" d="M0 0h11v11H0z"/></clipPath></defs></svg>