<svg width="18" height="17" fill="none" xmlns="http://www.w3.org/2000/svg"><path d="M17.896 3.552a.586.586 0 00-.449-.233L6.282 2.864c-.32-.013-.588.22-.602.522-.014.3.233.555.552.568l10.41.424-2.047 6.031H5.487L3.84 1.947a.554.554 0 00-.357-.409L.79.538a.59.59 0 00-.75.308c-.116.28.03.597.326.707l2.397.89 1.674 8.61a.57.57 0 00.568.447h.278l-.634 1.664a.433.433 0 00.06.415.49.49 0 00.393.194h.445c-.276.29-.445.67-.445 1.09 0 .903.777 1.637 1.732 1.637.956 0 1.733-.734 1.733-1.636 0-.42-.17-.802-.445-1.091h3.777c-.275.29-.444.67-.444 1.09 0 .903.777 1.637 1.732 1.637.956 0 1.733-.734 1.733-1.636 0-.42-.17-.802-.445-1.091h.541a.468.468 0 00.481-.455.469.469 0 00-.481-.454h-9.23l.52-1.364h8.71a.575.575 0 00.55-.379l2.406-7.09a.52.52 0 00-.076-.48zM6.834 15.59c-.424 0-.77-.326-.77-.727 0-.401.346-.728.77-.728.425 0 .77.327.77.728 0 .4-.345.727-.77.727zm6.353 0c-.425 0-.77-.326-.77-.727 0-.401.345-.728.77-.728.425 0 .77.327.77.728 0 .4-.345.727-.77.727z" fill="#4E4E4E"/></svg>