<svg width="11" height="11" fill="none" xmlns="http://www.w3.org/2000/svg"><g clip-path="url(#clip0)"><path d="M5.93 8.555l4.894-4.895A.597.597 0 0011 3.235a.597.597 0 00-.176-.426l-.36-.36a.603.603 0 00-.851 0l-4.11 4.11-4.116-4.115a.598.598 0 00-.425-.175.598.598 0 00-.426.175l-.36.36A.597.597 0 000 3.23c0 .161.062.313.176.426l4.9 4.9a.598.598 0 00.426.175.598.598 0 00.427-.176z" fill="#1777BD"/></g><defs><clipPath id="clip0"><path fill="#fff" transform="rotate(90 5.5 5.5)" d="M0 0h11v11H0z"/></clipPath></defs></svg>