<svg width="46" height="46" fill="none" xmlns="http://www.w3.org/2000/svg"><g clip-path="url(#clip0)"><path d="M46 5.271A5.275 5.275 0 0040.729 0H5.271A5.275 5.275 0 000 5.271v35.458A5.275 5.275 0 005.271 46h35.458A5.275 5.275 0 0046 40.729V5.271z" fill="#4CAF50"/><path d="M34.657 15.416c.75.749.75 1.96 0 2.71L22.2 30.584a1.912 1.912 0 01-2.71 0l-6.23-6.23a1.915 1.915 0 010-2.71 1.915 1.915 0 012.71 0l4.875 4.875 11.103-11.103c.75-.75 1.96-.75 2.71 0z" fill="#FAFAFA"/></g><defs><clipPath id="clip0"><path fill="#fff" d="M0 0h46v46H0z"/></clipPath></defs></svg>