<svg width="44" height="44" fill="none" xmlns="http://www.w3.org/2000/svg"><path d="M42.867 7.743H1.133C.506 7.743 0 8.25 0 8.876v26.25c0 .625.506 1.132 1.133 1.132h41.734c.627 0 1.133-.507 1.133-1.133V8.875c0-.625-.506-1.132-1.133-1.132zM3.407 16.36h4.696c.633.024 1.143.226 1.32.903l1.02 4.911c-1.003-2.569-3.42-4.706-7.075-5.591l.039-.223zm5.682 11.202l-2.713-9.267c1.95 1.248 3.611 3.228 4.196 4.606l.317 1.145 2.966-7.58h3.21l-4.77 11.094-3.206.002zm10.335.008h-3.03l1.895-11.115h3.03L19.424 27.57zm5.27.167c-1.357-.014-2.665-.283-3.374-.594l.426-2.487.39.177c.995.415 1.64.583 2.852.583.87 0 1.803-.34 1.812-1.085.005-.487-.39-.834-1.57-1.38-1.15-.531-2.672-1.422-2.654-3.019.017-2.16 2.127-3.667 5.12-3.667a7.83 7.83 0 012.714.466l-.41 2.41-.273-.129a5.588 5.588 0 00-2.267-.425c-1.185 0-1.735.494-1.735.956-.007.52.641.863 1.701 1.379 1.747.793 2.555 1.755 2.544 3.02-.023 2.305-2.09 3.795-5.275 3.795zm13.128-.162s-.277-1.278-.369-1.666l-3.88-.005c-.117.3-.636 1.67-.636 1.67h-3.18l4.497-10.185c.319-.724.86-.922 1.586-.922h2.34l2.452 11.107h-2.81z" fill="#1777BD"/><path d="M36.258 20.422l-.204-.958c-.154.419-.42 1.09-.403 1.061 0 0-.957 2.468-1.207 3.107h2.516l-.702-3.21z" fill="#1777BD"/></svg>