<svg width="42" height="42" fill="none" xmlns="http://www.w3.org/2000/svg"><path d="M39.659 40.445l-3.327-12.172a1.23 1.23 0 00-.473-.678l-8.054-5.736a9.517 9.517 0 002.698-6.624c0-4.962.033-5.233-.112-6.138C30.337 3.903 26.4 0 21.19 0h-.382c-5.21 0-9.146 3.903-9.2 9.097-.145.905-.112 1.176-.112 6.138 0 2.488.986 4.866 2.698 6.624L6.14 27.595a1.23 1.23 0 00-.473.678L2.341 40.445A1.231 1.231 0 003.528 42H19.77V28.997l1.23-.809 1.23.809V42h16.242c.811 0 1.4-.773 1.187-1.555zM20.197 3.987h1.607a1.23 1.23 0 010 2.46h-1.607a1.23 1.23 0 010-2.46zm-.427 22.065l-2.707 1.778-3.61-2.42 2.764-1.97a9.463 9.463 0 003.553 1.209v1.403zM21 22.267a7.04 7.04 0 01-7.042-7.032l-.002-2.221.662.965a1.23 1.23 0 001.015.536h10.734c.406 0 .786-.2 1.015-.536l.662-.965-.002 2.22c0 3.826-3.099 7.033-7.042 7.033zm1.23 3.785v-1.404a9.455 9.455 0 003.553-1.208l2.764 1.97-3.61 2.42-2.707-1.778zm9.223 10.706h-4.315a1.23 1.23 0 010-2.461h4.315a1.23 1.23 0 010 2.46z" fill="#1777BD"/></svg>