<svg width="46" height="46" fill="none" xmlns="http://www.w3.org/2000/svg"><path d="M33.396 28.845a2.895 2.895 0 012.461-1.531L37.006 23h-18.1c-.071.131-.148.26-.23.388l-.5.815 15.22 4.642zm3.979-10.157a2.878 2.878 0 012.875-2.875V7.905a2.88 2.88 0 01-2.784-2.156h-23.9A2.886 2.886 0 0111.5 7.815v8.088a2.885 2.885 0 011.726 1.273l2.025-2.531a.72.72 0 01.98-.136l.854.61a6.09 6.09 0 012.397 3.569h17.893zM34.5 8.624h4.313v1.438H34.5V8.624zm-8.625-1.438a5.031 5.031 0 110 10.063 5.031 5.031 0 010-10.063z" fill="#1777BD"/><path d="M25.875 15.813a3.594 3.594 0 100-7.188 3.594 3.594 0 000 7.188zm-9.671 15.094l-.952-1.945-.877 1.429v3.866a4.705 4.705 0 005.167 1.183l-.956-1.954a6.067 6.067 0 01-2.382-2.58zm20.886-2.641a.718.718 0 01-.846.517 1.44 1.44 0 00-1.711 1.098.72.72 0 01-.913.536l-16.222-4.948-.982 1.598 20.68 5.822a.18.18 0 00.222-.125L40.067 23h-1.574l-1.402 5.266z" fill="#1777BD"/><path d="M9.524 2.875a.898.898 0 00-.899.898V6.47h-.054v14.914a.18.18 0 00.18.18h.967l2.483-3.105a1.44 1.44 0 00-1.405-1.208.726.726 0 01-.733-.719V7.188a.715.715 0 01.713-.72 1.44 1.44 0 001.443-1.442.718.718 0 01.719-.713h25.151a.716.716 0 01.724.707 1.437 1.437 0 001.912 1.368.718.718 0 01.963.676v9.571a.72.72 0 01-.958.697 1.437 1.437 0 00-1.836 1.83.719.719 0 01-.677.963H19.645a6.09 6.09 0 01-.18 1.438h22.762a.899.899 0 00.898-.899V3.774a.898.898 0 00-.898-.899H9.524zm7.17 25.764l.8 1.636a4.672 4.672 0 005.921 2.29l-1.153-2.359-5.568-1.567z" fill="#1777BD"/><path d="M17.463 22.617a4.668 4.668 0 00-1.214-6.328l-.3-.215-5.325 6.656a.719.719 0 01-.561.27H8.75a1.619 1.619 0 01-1.617-1.617V7.188h-.63a1.081 1.081 0 00-1.056.866L2.89 20.84l2.125 9.917c.01.05.015.1.015.15v12.219h7.907V30.187a.72.72 0 01.106-.376l4.411-7.182.009-.012z" fill="#1777BD"/></svg>