<svg width="45" height="45" fill="none" xmlns="http://www.w3.org/2000/svg"><g clip-path="url(#clip0)" fill="#1777BD"><path d="M42.363 11.95h-.328v17.873a5.28 5.28 0 01-5.273 5.273H5.602v.328a2.637 2.637 0 002.636 2.637h34.125A2.637 2.637 0 0045 35.424V14.587a2.637 2.637 0 00-2.637-2.637z"/><path d="M39.398 29.823V9.575a2.637 2.637 0 00-2.636-2.636H2.637A2.637 2.637 0 000 9.575v20.248a2.637 2.637 0 002.637 2.636h34.125a2.637 2.637 0 002.636-2.636zM4.201 11.495h6.828v2.637H4.201v-2.637zm9.749 8.239H4.201v-2.637h9.749v2.637zm21.165 8.442h-2.637V25.54h2.637v2.636z"/></g><defs><clipPath id="clip0"><path fill="#fff" d="M0 0h45v45H0z"/></clipPath></defs></svg>