<svg width="48" height="48" fill="none" xmlns="http://www.w3.org/2000/svg"><path fill-rule="evenodd" clip-rule="evenodd" d="M34.219 10.033c4.161.965 5.753 3.399 7.75 6.748h-7.75v-6.748zm-24.321 7.03c.815 0 1.406.393 1.406 1.312 0 .775-.627 1.404-1.402 1.406H1.406a1.406 1.406 0 000 2.813h12.656a1.406 1.406 0 11.006 2.812H1.406a1.406 1.406 0 100 2.813H4.5v4.218c0 .777.63 1.407 1.406 1.407h2.827a5.393 5.393 0 0010.565 0h14.279a5.393 5.393 0 0010.565 0h2.452c.776 0 1.406-.63 1.406-1.407V24c0-4.126-4.352-4.4-4.356-4.406H32.813c-.777 0-1.407-.63-1.407-1.407V9.75h-25.5c-.776 0-1.406.63-1.406 1.406v3.094H2.812a1.406 1.406 0 100 2.813h7.086zm30.784 13.88a2.579 2.579 0 010 3.646c-1.619 1.62-4.4.467-4.4-1.823s2.781-3.443 4.4-1.823zm-24.843 0a2.579 2.579 0 010 3.646c-1.62 1.62-4.402.467-4.402-1.823s2.782-3.443 4.402-1.823z" fill="#1777BD"/></svg>