<svg width="42" height="42" fill="none" xmlns="http://www.w3.org/2000/svg"><g clip-path="url(#clip0)" fill="#1777BD"><path d="M17.182 12.357c0 3.139 6.242 4.782 12.409 4.782 6.166 0 12.409-1.643 12.409-4.781 0-6.278-24.818-6.278-24.818 0z"/><path d="M41.54 16.988a.957.957 0 00-.938-.029c-2.57 1.349-6.48 2.092-11.011 2.092-4.53 0-8.441-.743-11.012-2.092a.957.957 0 00-1.397.847v.289c0 3.138 6.242 4.78 12.409 4.78 6.166 0 12.409-1.642 12.409-4.78v-.289a.956.956 0 00-.46-.818zM5.728 31.482c0 3.138 6.242 4.78 12.409 4.78 6.166 0 12.409-1.642 12.409-4.78 0-6.277-24.818-6.277-24.818 0z"/><path d="M30.085 36.112a.96.96 0 00-.937-.028c-2.57 1.348-6.481 2.091-11.011 2.091-4.53 0-8.441-.743-11.012-2.091a.955.955 0 00-1.397.847v.288C5.728 40.358 11.97 42 18.137 42c6.166 0 12.409-1.642 12.409-4.781v-.288a.956.956 0 00-.46-.819zM12.41 9.489a33.47 33.47 0 003.831-.218.954.954 0 00.546-.253c1.445-1.363 3.916-2.369 7.143-2.908a.955.955 0 00.742-.62c.099-.276.146-.532.146-.782C24.818-1.57 0-1.57 0 4.708c0 3.138 6.243 4.78 12.41 4.78zm0 5.737c.79 0 1.56-.027 2.307-.077a.955.955 0 00.832-1.287 4.225 4.225 0 01-.271-1.556.955.955 0 00-.297-.692c-.188-.18-.454-.29-.704-.263-.623.03-1.247.05-1.868.05-4.53 0-8.44-.743-11.012-2.092A.957.957 0 000 10.157v.288c0 3.139 6.243 4.781 12.41 4.781zm0 5.737c.79 0 1.56-.027 2.307-.076a.955.955 0 00.832-1.288 4.325 4.325 0 01-.276-1.556.956.956 0 00-.297-.692.934.934 0 00-.703-.263c-.622.03-1.244.05-1.864.05-4.53 0-8.44-.743-11.012-2.091A.957.957 0 000 15.894v.288c0 3.139 6.243 4.781 12.41 4.781zm29.13 7.5a.95.95 0 00-.937-.03c-1.796.943-4.324 1.601-7.307 1.903-.504.051-.863.64-.841 1.146 0 .484-.078.947-.239 1.413a.956.956 0 001.005 1.263c5.497-.594 8.78-2.31 8.78-4.589v-.288a.956.956 0 00-.461-.818zm-23.404-3.675l.633.011h.017a.955.955 0 00.395-1.826l-.204-.092c-.136-.06-.273-.12-.4-.186a.955.955 0 00-1.395.848v.289c0 .528.427.956.954.956zm23.404-2.062a.957.957 0 00-.937-.03c-2.571 1.349-6.482 2.092-11.012 2.092l-.63-.012c-.385-.033-.846.306-.944.748a.955.955 0 00.536 1.079c1.034.47 1.879 1.03 2.51 1.662.18.18.422.279.675.279l.06-.002C36.504 28.243 42 26.83 42 23.832v-.288a.956.956 0 00-.46-.819zM7.983 26.404a.95.95 0 00.352-.067c1.681-.666 3.732-1.125 6.096-1.363.503-.05.863-.687.842-1.193a.955.955 0 00-1-.956c-.622.03-1.244.05-1.864.05-4.53 0-8.44-.742-11.012-2.09A.956.956 0 000 21.631v.288c0 2.113 2.935 3.786 7.85 4.474a.87.87 0 00.133.01z"/></g><defs><clipPath id="clip0"><path fill="#fff" d="M0 0h42v42H0z"/></clipPath></defs></svg>