<svg width="64" height="35" fill="none" xmlns="http://www.w3.org/2000/svg"><g clip-path="url(#clip0)" fill-rule="evenodd" clip-rule="evenodd" fill="#ED1C24"><path d="M38.96 6.608c.068-.022.158.021.248.14l4.069 3.965c.238.236.238.595 0 .77l-4.07 4.027c-.09.118-.18.147-.248.11-.068-.035-.111-.139-.111-.29V6.867c0-.147.043-.237.111-.258zM31.999 0h.288l.277.115 4.188 4.144c.18.237.12.416-.18.416h-1.736a.532.532 0 00-.536.534v3.076c0 .298-.241.535-.601.535h-3.05a.535.535 0 01-.54-.535V5.21a.533.533 0 00-.54-.534h-1.855c-.3 0-.36-.18-.18-.416L31.725.115 32 0zm-6.561 6.518c.075.036.122.14.122.29v8.64c0 .152-.047.241-.122.27-.072.028-.177 0-.3-.09l-4.13-4.144c-.237-.176-.237-.535 0-.771l4.13-4.084c.123-.118.228-.147.3-.11zm5.211 6.802h3.05c.36 0 .601.236.601.533v3.256c0 .355.238.591.537.591h1.617c.299 0 .417.176.18.355l-4.07 4.084a.604.604 0 01-.42.179.596.596 0 01-.418-.18l-4.07-4.083c-.24-.18-.122-.355.177-.355h1.736c.302 0 .54-.236.54-.591v-3.256c0-.297.241-.534.54-.534z"/></g><path fill-rule="evenodd" clip-rule="evenodd" d="M0 27.6h1.314c.48 0 .72.236.72.77v1.893H4.61V28.37c0-.534.238-.77.778-.77h1.257v1.243h-.537l-.06.061v5.328h-1.44v-2.664H2.035v2.664H.598v-5.328s0-.06-.061-.06H0v-1.245zm10.414-.12l.032.004v1.366l-.032-.007c-1.077 0-1.916.89-1.916 2.015 0 1.183.84 2.13 1.916 2.13l.032-.008v1.366l-.032.004a3.467 3.467 0 01-3.472-3.492c0-1.897 1.556-3.377 3.472-3.377zm.032.004l.667.065c1.58.308 2.772 1.65 2.772 3.31a3.468 3.468 0 01-2.772 3.42l-.667.067v-1.365l.731-.158c.706-.323 1.214-1.08 1.214-1.965 0-.846-.508-1.556-1.214-1.857l-.73-.15v-1.367zm3.739.116h2.963v1.243h-.928v1.363h.929v1.183h-.929v1.48c0 .061 0 .061.061.061h.869v1.302h-1.647c-.478 0-.716-.237-.716-.771v-4.618h-.601V27.6z" fill="#ED1C24"/><path fill-rule="evenodd" clip-rule="evenodd" d="M17.148 27.6h.03c1.317 0 2.095.709 2.095 1.777 0 .65-.299 1.065-.598 1.363.54.236.897.828.897 1.477 0 1.244-.958 2.015-2.334 2.015h-.09V32.93h.148c.479 0 .782-.297.782-.77 0-.474-.303-.771-.782-.771h-.148v-1.183h.03c.42 0 .658-.298.658-.71 0-.416-.237-.653-.659-.653h-.029V27.6zm5.178 0h.717v1.896a1.13 1.13 0 00-.119.473l-.479 1.362h.598v1.24h-.954l-.422 1.07c-.119.412-.356.59-.835.59h-.9v-1.3h.299c.122 0 .122 0 .18-.062l1.915-5.27zm.717 0h.72l1.916 5.27c.058.06.058.06.176.06h.242v1.302h-.84c-.478 0-.716-.18-.838-.653L24 32.572h-.957v-1.24h.598l-.476-1.363c0-.18-.06-.355-.122-.473v-1.897zm5.822-.105h5.207c.48 0 .778.237.778.77v4.5c0 .058 0 .058.061.058h.48v1.305h-1.258c-.54 0-.777-.237-.777-.771V28.8s0-.06-.062-.06H30.9v5.388h-1.437v-5.389h-.598v-1.244zm10.295-.118l.029.004v1.366l-.03-.008c-1.08 0-1.915.89-1.915 2.015 0 1.183.836 2.13 1.916 2.13l.029-.007v1.366l-.03.003c-1.915 0-3.413-1.541-3.413-3.492 0-1.896 1.498-3.377 3.414-3.377z" fill="#ED1C24"/><path fill-rule="evenodd" clip-rule="evenodd" d="M39.188 27.38l.688.065c1.61.308 2.755 1.65 2.755 3.31 0 1.706-1.145 3.1-2.755 3.42l-.688.068v-1.367l.76-.157c.717-.323 1.189-1.08 1.189-1.965 0-.846-.472-1.556-1.189-1.857l-.76-.15V27.38zm3.742.115h1.319c.479 0 .716.237.716.77v4.5c0 .058 0 .058.061.058h1.736v-5.328H48.2v5.328h1.736c.06 0 .06 0 .06-.058v-4.5c0-.533.239-.77.718-.77h1.318v1.244h-.54c-.062 0-.062.061-.062.061v4.557c0 .534-.238.77-.717.77h-6.406c-.536 0-.778-.236-.778-.77V28.8s0-.06-.057-.06h-.54v-1.245zm10.235 0h4.49c.54 0 .72.237.72.71v1.126h-1.317v-.53c0-.062 0-.062-.062-.062h-.835v5.389h-1.44v-5.389h-.836c-.061 0-.061 0-.061.061v.53h-1.318v-1.125c0-.473.18-.71.659-.71zm7.065 0h.716v1.897a1.077 1.077 0 00-.119.473l-.478 1.362h.597v1.24h-.958l-.417 1.008c-.12.474-.36.653-.84.653h-.896v-1.305h.299c.122 0 .122 0 .18-.058l1.916-5.27zm.716 0h.717l1.92 5.27c.057.058.057.058.18.058H64v1.305h-.84c-.478 0-.716-.18-.838-.653l-.418-1.007h-.957v-1.24h.597l-.479-1.363c0-.18-.057-.355-.119-.473v-1.897z" fill="#ED1C24"/><defs><clipPath id="clip0"><path fill="#fff" transform="translate(20.83)" d="M0 0h22.616v22.318H0z"/></clipPath></defs></svg>