<svg width="44" height="44" fill="none" xmlns="http://www.w3.org/2000/svg"><g clip-path="url(#clip0)" fill="#1777BD"><path d="M12.19 24.076c3.842-1.319 7.02-.21 8.735.695h8.952c1.663 0 3.115.927 3.882 2.298l2.74-1.95V1.878h-9.296v15.075h-9.028V1.878H8.881v24.115a9.755 9.755 0 013.31-1.917z"/><path d="M20.755 1.878h3.87v12.495h-3.87V1.879zm22.649 25.43a3.189 3.189 0 00-2.083-1.303 3.187 3.187 0 00-2.394.55l-4.623 3.293c-.27 2.234-2.152 3.97-4.427 3.97h-5.55v-2.58h5.55c1.038 0 1.883-.872 1.883-1.944s-.845-1.944-1.883-1.944h-9.625c-1.44-.983-4.097-1.908-7.224-.834-2.734.938-3.881 3.047-4.172 3.679v11.928H28.1l14.554-10.339a3.188 3.188 0 001.302-2.082 3.189 3.189 0 00-.55-2.394zM0 27.875h6.277v14.248H0V27.875z"/></g><defs><clipPath id="clip0"><path fill="#fff" d="M0 0h44v44H0z"/></clipPath></defs></svg>