<svg width="16" height="16" fill="none" xmlns="http://www.w3.org/2000/svg"><g clip-path="url(#clip0)"><path d="M5.974 11.618H4.725v2.5c0 1.032.84 1.873 1.874 1.873h7.527c1.033 0 1.874-.84 1.874-1.874V1.874C16 .84 15.16 0 14.126 0H6.6C5.566 0 4.725.84 4.725 1.874v2.499h1.25v-2.5c0-.343.28-.624.624-.624h7.527c.345 0 .625.28.625.625v12.243c0 .344-.28.625-.625.625H6.6a.625.625 0 01-.625-.625v-2.499zm-3.03-6.567l.884.883-1.437 1.437h8.08v1.25h-8.08l1.437 1.436-.883.883L0 7.996 2.945 5.05z" fill="#ED4242"/></g><defs><clipPath id="clip0"><path fill="#fff" transform="matrix(-1 0 0 1 16 0)" d="M0 0h16v16H0z"/></clipPath></defs></svg>