<svg width="17" height="17" fill="none" xmlns="http://www.w3.org/2000/svg"><g clip-path="url(#clip0)"><path d="M8.5 3.434c-3.248 0-6.194 1.777-8.367 4.663a.673.673 0 000 .803c2.173 2.89 5.119 4.667 8.367 4.667 3.248 0 6.194-1.777 8.367-4.663a.673.673 0 000-.804C14.693 5.21 11.748 3.434 8.5 3.434zm.233 8.634a3.578 3.578 0 01-3.801-3.8 3.584 3.584 0 013.335-3.336 3.578 3.578 0 013.801 3.801 3.595 3.595 0 01-3.335 3.335zm-.108-1.648A1.922 1.922 0 016.58 8.375c.06-.96.838-1.735 1.798-1.798a1.922 1.922 0 012.045 2.045 1.933 1.933 0 01-1.798 1.798z" fill="#ABABAB"/></g><defs><clipPath id="clip0"><path fill="#fff" d="M0 0h17v17H0z"/></clipPath></defs></svg>