<svg width="17" height="17" fill="none" xmlns="http://www.w3.org/2000/svg"><g clip-path="url(#clip0)" fill="#ABABAB"><path d="M8.5 3.542c-4.364 0-8.253 4.536-8.417 4.73a.354.354 0 000 .457 17.726 17.726 0 003.589 3.097l2.22-2.22a2.836 2.836 0 013.714-3.714l1.825-1.825A8.651 8.651 0 008.5 3.542zm8.437 4.756c-.09-.13-1.594-2.247-4.122-3.612l1.957-1.957a.354.354 0 00-.501-.5L2.23 14.27a.354.354 0 00.5.502l2.22-2.221c1.095.534 2.302.907 3.55.907 4.364 0 8.253-4.536 8.417-4.73a.355.355 0 00.02-.43zM8.5 11.333a2.808 2.808 0 01-1.728-.604l3.957-3.957c.373.48.605 1.074.605 1.728A2.836 2.836 0 018.5 11.333z"/></g><defs><clipPath id="clip0"><path fill="#fff" d="M0 0h17v17H0z"/></clipPath></defs></svg>