<svg width="17" height="18" fill="none" xmlns="http://www.w3.org/2000/svg"><path d="M15.592 2.838a4.724 4.724 0 00-6.707 0l-.385.387-.384-.387a4.725 4.725 0 00-6.708 0A4.818 4.818 0 000 6.253C0 7.542.5 8.754 1.408 9.67l6.681 6.716a.577.577 0 00.411.174.577.577 0 00.41-.174l6.682-6.716A4.819 4.819 0 0017 6.254a4.82 4.82 0 00-1.408-3.416zm-.822 5.916L8.5 15.056 2.23 8.754a3.53 3.53 0 010-5 3.555 3.555 0 012.532-1.055c.917 0 1.834.352 2.532 1.055l.795.8c.23.231.592.231.822 0l.795-.8a3.566 3.566 0 015.064 0 3.53 3.53 0 010 5z" fill="#4E4E4E"/></svg>