<svg width="217" height="49" fill="none" xmlns="http://www.w3.org/2000/svg"><path d="M62.939 35.938V39h-1.031v-7.82h2.884c.856 0 1.525.218 2.009.655.487.437.73 1.015.73 1.735 0 .759-.238 1.344-.714 1.756-.473.408-1.151.612-2.036.612H62.94zm0-.843h1.853c.551 0 .974-.129 1.268-.386.293-.262.44-.638.44-1.128 0-.466-.147-.838-.44-1.118-.294-.279-.697-.424-1.209-.435H62.94v3.067zm8.089 4.012c-.788 0-1.429-.257-1.923-.773-.494-.52-.741-1.212-.741-2.079v-.182c0-.577.109-1.09.327-1.542.222-.454.53-.809.924-1.063a2.324 2.324 0 011.29-.387c.755 0 1.342.249 1.761.747.419.497.628 1.21.628 2.137v.414h-3.937c.015.573.181 1.037.5 1.391.322.35.73.526 1.225.526.35 0 .648-.071.891-.215a2.24 2.24 0 00.64-.569l.606.473c-.487.748-1.217 1.122-2.191 1.122zm-.124-5.21c-.4 0-.737.147-1.01.44-.272.29-.44.7-.504 1.225h2.91v-.075c-.028-.505-.164-.895-.407-1.17-.244-.28-.573-.42-.989-.42zm6.891 3.787l1.977-4.495h1.24V39h-.993v-4.227L78.139 39h-.687l-1.918-4.318V39h-.994v-5.812h1.29l1.965 4.496zm6.628-1.16h-.725V39H82.7v-5.812h1v2.46h.65l1.954-2.46h1.203l-2.299 2.793L87.7 39h-1.263l-2.014-2.476zm3.75-.483c0-.57.11-1.082.332-1.537.226-.454.538-.805.935-1.052a2.56 2.56 0 011.37-.37c.79 0 1.43.273 1.917.82.49.549.736 1.277.736 2.187v.07c0 .565-.11 1.074-.328 1.525a2.447 2.447 0 01-.929 1.047 2.56 2.56 0 01-1.386.376c-.787 0-1.427-.273-1.917-.821-.487-.548-.73-1.273-.73-2.176v-.07zm.998.118c0 .644.149 1.162.446 1.552.301.39.702.585 1.203.585.505 0 .906-.197 1.203-.59.298-.398.446-.953.446-1.666 0-.637-.152-1.152-.456-1.546a1.433 1.433 0 00-1.203-.596c-.491 0-.887.195-1.187.585-.301.39-.452.949-.452 1.676zm8.884 1.525l1.977-4.495h1.24V39h-.993v-4.227L98.399 39h-.688l-1.917-4.318V39H94.8v-5.812h1.29l1.965 4.496zM107.626 39h-.993v-4.99h-2.675V39h-.999v-5.812h4.667V39zm6.36-5.812V39h-.999v-4.99h-1.977l-.118 2.175c-.064 1-.233 1.714-.505 2.144-.268.43-.696.653-1.283.671h-.398v-.876l.285-.021c.322-.036.553-.222.693-.559.139-.336.229-.96.268-1.869l.108-2.486h3.926zm4.007 5.92c-.788 0-1.429-.258-1.923-.774-.494-.52-.741-1.212-.741-2.079v-.182c0-.577.109-1.09.327-1.542.222-.454.53-.809.924-1.063a2.325 2.325 0 011.289-.387c.756 0 1.343.249 1.762.747.419.497.628 1.21.628 2.137v.414h-3.937c.015.573.181 1.037.5 1.391.322.35.73.526 1.224.526.351 0 .648-.071.892-.215.243-.143.457-.333.639-.569l.607.473c-.487.748-1.217 1.122-2.191 1.122zm-.124-5.21c-.401 0-.737.146-1.01.44-.272.29-.44.698-.505 1.224h2.912v-.075c-.029-.505-.165-.895-.409-1.17-.243-.28-.572-.42-.988-.42zm5.355 2.626h-.725V39h-.999v-5.812h.999v2.46h.65l1.955-2.46h1.203l-2.299 2.793L126.5 39h-1.262l-2.014-2.476zm8.449-2.53h-1.95V39h-.994v-5.006h-1.912v-.806h4.856v.806zm2.052 1.198h1.509c.659.007 1.18.179 1.563.516.383.336.575.793.575 1.37 0 .58-.197 1.045-.591 1.396-.394.35-.924.526-1.59.526h-2.46v-5.812h.994v2.004zm5.72 3.808h-.999v-5.812h.999V39zm-5.72-2.997v2.186h1.477c.372 0 .66-.095.864-.285.205-.193.307-.456.307-.79 0-.322-.101-.585-.301-.789-.197-.208-.475-.315-.833-.322h-1.514zm10.135 2.186l.344-.424c.386-.502.607-1.254.66-2.256l.092-2.32h3.743v5h.747v2.519h-.994V39h-4.055v1.708h-.994l.006-2.519h.451zm1.176 0h2.67v-4.082h-1.789l-.059 1.386c-.061 1.156-.335 2.055-.822 2.696zm10.275-5V39h-.999v-4.99h-1.977l-.118 2.175c-.064 1-.232 1.714-.505 2.144-.268.43-.696.653-1.283.671h-.398v-.876l.285-.021c.322-.036.553-.222.693-.559.139-.336.229-.96.268-1.869l.108-2.486h3.926zm6.037 0V39h-.999v-2.261h-1.498L157.481 39h-1.074l1.461-2.412c-.373-.136-.659-.345-.86-.628a1.72 1.72 0 01-.295-1c0-.529.199-.955.596-1.277.398-.326.929-.49 1.595-.495h2.444zm-3.636 1.783c0 .283.097.512.29.687.193.172.449.26.768.263h1.579v-1.928h-1.429c-.368 0-.662.091-.88.274a.864.864 0 00-.328.704zm11.72-1.784h.993V39h-.993v-4.238L166.751 39h-.993v-5.812h.993v4.244l2.681-4.244zM176.769 39h-.994v-2.481h-2.67V39h-.999v-5.812h.999v2.52h2.67v-2.52h.994V39zm1.337-2.96c0-.569.111-1.08.333-1.536a2.53 2.53 0 01.935-1.052c.401-.247.857-.37 1.369-.37.792 0 1.431.273 1.918.82.49.549.735 1.277.735 2.187v.07c0 .565-.109 1.074-.327 1.525a2.451 2.451 0 01-.929 1.047 2.56 2.56 0 01-1.386.376c-.788 0-1.427-.273-1.918-.821-.487-.548-.73-1.273-.73-2.176v-.07zm.999.119c0 .644.149 1.162.446 1.552.301.39.702.585 1.203.585.505 0 .906-.197 1.203-.59.297-.398.446-.953.446-1.666 0-.637-.152-1.152-.457-1.546a1.433 1.433 0 00-1.203-.596c-.49 0-.886.195-1.187.585-.301.39-.451.949-.451 1.676zm8.884 1.525l1.976-4.495h1.241V39h-.994v-4.227L188.333 39h-.688l-1.917-4.318V39h-.994v-5.812h1.289l1.966 4.496zM196.395 39c-.058-.115-.104-.319-.14-.612-.462.48-1.013.72-1.654.72-.573 0-1.044-.162-1.413-.484a1.585 1.585 0 01-.548-1.235c0-.606.229-1.075.688-1.408.462-.336 1.11-.504 1.944-.504h.967v-.457c0-.347-.104-.623-.312-.827-.207-.208-.514-.312-.918-.312-.355 0-.652.09-.892.269-.24.179-.36.396-.36.65h-.999c0-.29.102-.57.306-.838a2.13 2.13 0 01.838-.645 2.839 2.839 0 011.166-.236c.669 0 1.194.168 1.574.505.379.333.576.793.59 1.38v2.675c0 .534.068.958.205 1.273V39h-1.042zm-1.649-.757c.311 0 .607-.08.886-.242.279-.161.481-.37.607-.628V36.18h-.779c-1.217 0-1.826.356-1.826 1.069 0 .311.104.555.311.73.208.176.475.264.801.264zm8.953-2.084c0 .884-.202 1.597-.607 2.137-.404.541-.952.811-1.643.811-.706 0-1.261-.223-1.665-.671v2.798h-.994v-8.046h.908l.048.645c.405-.501.967-.752 1.687-.752.698 0 1.249.263 1.654.79.408.526.612 1.258.612 2.196v.092zm-.993-.113c0-.655-.14-1.173-.419-1.552-.28-.38-.663-.57-1.15-.57-.601 0-1.053.267-1.353.8v2.778c.297.53.752.794 1.364.794.476 0 .854-.188 1.133-.564.283-.38.425-.941.425-1.686zm1.998-.005c0-.57.111-1.082.333-1.537.225-.454.537-.805.934-1.052a2.56 2.56 0 011.37-.37c.791 0 1.43.273 1.917.82.491.549.736 1.277.736 2.187v.07c0 .565-.109 1.074-.327 1.525a2.447 2.447 0 01-.93 1.047 2.556 2.556 0 01-1.385.376c-.788 0-1.427-.273-1.918-.821-.487-.548-.73-1.273-.73-2.176v-.07zm.999.118c0 .644.148 1.162.445 1.552.301.39.702.585 1.204.585.504 0 .905-.197 1.203-.59.297-.398.445-.953.445-1.666 0-.637-.152-1.152-.456-1.546a1.434 1.434 0 00-1.203-.596c-.491 0-.886.195-1.187.585-.301.39-.451.949-.451 1.676zm7.347.365h-.725V39h-.999v-5.812h.999v2.46h.65l1.955-2.46h1.203l-2.299 2.793L216.327 39h-1.263l-2.014-2.476zM61.38 7.618h3.952v7.8h.074c.4-.68.814-1.302 1.2-1.939l4.01-5.861h4.9l-5.847 7.52 6.158 10.139h-4.663l-4.322-7.623-1.525 1.865v5.758h-3.952V7.617h.015zm21.685 0h4.012v14.298h7.016v3.36H83.065V7.618zm23.002 0v17.658h-4.012V7.618h4.012zm9.058 0h10.791v3.27h-6.779v4.042h6.335v3.241h-6.335v7.105h-4.012V7.618zm29.915 10.183h-6.498v4.19h7.253v3.27h-11.25V7.619h10.895v3.27h-6.898v3.672h6.498V17.8zm18.385 7.475l-1.599-3.198c-.651-1.228-1.081-2.146-1.569-3.167h-.059c-.37 1.021-.814 1.939-1.362 3.167l-1.465 3.198h-4.559l5.106-8.926-4.929-8.718h4.589l1.539 3.227c.518 1.08.918 1.939 1.332 2.93h.06c.414-1.124.754-1.909 1.198-2.93l1.495-3.227h4.559l-4.973 8.615 5.24 9.044h-4.603v-.015zM13.706 31.722l4.5-4.589c.192.178.429.385.65.622A8453.16 8453.16 0 0135.243 44.17c.562.563 1.125.859 1.939.83 1.554-.06 3.123-.016 4.677-.016 2.043-.015 3.212-1.184 3.227-3.241.015-2.028 0-4.041 0-6.07V3.318C45.086 1.2 43.916.046 41.8.03c-1.599 0-3.197-.06-4.796.03-.533.029-1.17.28-1.554.636-1.406 1.302-2.739 2.679-4.086 4.04A19973.269 19973.269 0 00.68 35.438c-.281.281-.562.696-.577 1.051a82.558 82.558 0 000 5.743c.044 1.362 1.066 2.59 2.324 2.664 2.102.119 4.218.03 6.32.03.074-.118.163-.222.237-.34-1.465-1.347-2.946-2.694-4.367-3.997l4.648-4.692c.207.296.37.622.607.873 2.472 2.502 4.973 4.959 7.43 7.475.504.518 1.022.755 1.762.74 2.265-.044 4.544-.015 6.809-.015.296 0 .592-.044 1.095-.074-4.544-4.529-8.955-8.88-13.262-13.173zM26.79.016c-2.576 0-5.122.03-7.668-.015-.784-.015-1.317.222-1.85.77-4.87 4.9-9.68 9.873-14.698 14.624-1.865 1.777-2.62 3.42-2.561 6.143.015 1.717.044 3.42.044 5.225C9.028 17.808 17.865 8.956 26.791.016zm-18.03 0c-2.012 0-3.951-.03-5.905.015C1.494.06.25 1.052.162 2.444.029 4.5.132 6.588.132 8.66c2.872-2.9 5.714-5.728 8.63-8.644z" fill="#fff"/><path d="M13.706 31.722c4.455 4.425 8.91 8.836 13.35 13.262-.25 0-.665-.015-1.183-.015-3.109-.03-4.648 0-5.003 0-.607 0-1.2.015-1.806.03-.74.015-1.258-.222-1.762-.74-2.457-2.502-4.958-4.974-7.43-7.475-.252-.252-.415-.577-.607-.873l-4.648 4.692c1.599 1.465 3.197 2.93 4.796 4.381H2.426c-1.243-.03-2.131-2.28-2.309-2.738-.222-.578-.074-2.872 0-5.743.015-.356.296-.785.578-1.051A29940.844 29940.844 0 0131.394 4.738c1.362-1.362 2.679-2.739 4.085-4.041C35.864.34 36.501.09 37.033.06c1.599-.089 3.198-.03 4.796-.03 2.132 0 3.286 1.155 3.286 3.287v38.426c-.015 2.072-1.184 3.241-3.227 3.241-1.554 0-3.123-.044-4.677.015-.829.03-1.377-.252-1.94-.829-5.446-5.492-10.923-10.953-16.385-16.415-.222-.222-.459-.43-.651-.622-1.495 1.51-2.946 2.99-4.53 4.589zM2.589 15.395C7.592 10.629 12.417 5.67 17.287.77c.533-.547 1.08-.784 1.85-.77 2.546.045 5.092.015 7.668.015L.087 26.777M8.761.015A5140.392 5140.392 0 00.028 8.763v-5.89c0-.03 0-.12.015-.223C.147 1.54.976.8 1.035.755 1.76.134 2.589.075 2.87.045c.09 0 .163 0 .193-.015C3.95 0 6.645 0 8.76.015z" fill="#fff"/></svg>