<svg width="62" height="45" fill="none" xmlns="http://www.w3.org/2000/svg"><path d="M.009 34H2.29v4.504h.043c.23-.394.47-.752.692-1.12L5.34 34h2.828l-3.375 4.341 3.554 5.853h-2.69l-2.495-4.4-.88 1.076v3.324H0V34h.009zm12.516 0h2.316v8.255h4.05v1.94h-6.366V34zm13.279 0v10.194h-2.316V34h2.316zm5.231 0h6.23v1.888H33.35v2.333h3.657v1.872H33.35v4.101h-2.316V34zm17.269 5.879h-3.75v2.418h4.186v1.889h-6.494V34h6.29v1.888h-3.983v2.12h3.752v1.871zm10.612 4.315l-.923-1.846c-.376-.71-.624-1.24-.906-1.829h-.034c-.214.59-.47 1.12-.786 1.829l-.846 1.846h-2.632l2.948-5.153-2.845-5.033h2.648l.89 1.863c.298.624.529 1.12.768 1.692h.035c.239-.65.435-1.102.692-1.692l.863-1.863h2.632l-2.872 4.973 3.025 5.221h-2.657v-.008zM25.912 18.313l2.598-2.65c.11.103.247.223.375.36 3.154 3.153 6.315 6.314 9.46 9.476.325.325.65.495 1.12.478.896-.034 1.802-.008 2.7-.008 1.179-.009 1.854-.684 1.862-1.872.009-1.17 0-2.332 0-3.503V1.914c0-1.221-.675-1.888-1.897-1.896-.923 0-1.846-.034-2.768.017a1.557 1.557 0 00-.898.367c-.811.752-1.58 1.547-2.358 2.333-5.905 5.896-11.81 11.8-17.714 17.722-.162.163-.325.402-.333.607a47.663 47.663 0 000 3.316c.026.786.615 1.495 1.342 1.538 1.213.068 2.435.017 3.648.017.043-.069.094-.128.137-.197-.846-.777-1.7-1.555-2.52-2.307l2.682-2.709c.12.171.214.36.35.504 1.428 1.445 2.872 2.863 4.29 4.316.29.299.59.435 1.017.427 1.308-.026 2.623-.009 3.93-.009.172 0 .343-.025.633-.042-2.623-2.615-5.17-5.127-7.656-7.605zM33.466.009c-1.487 0-2.957.017-4.427-.008-.453-.009-.76.128-1.068.444-2.811 2.828-5.588 5.7-8.485 8.442-1.077 1.026-1.512 1.974-1.478 3.547.008.99.025 1.974.025 3.016C23.212 10.28 28.313 5.17 33.466.01zm-10.408 0c-1.162 0-2.282-.017-3.41.009-.786.017-1.504.59-1.555 1.393-.077 1.187-.017 2.392-.017 3.588 1.658-1.674 3.298-3.306 4.982-4.99z" fill="#231F20"/><path d="M25.912 18.313c2.572 2.555 5.144 5.101 7.708 7.656-.146 0-.385-.008-.684-.008-1.794-.017-2.683 0-2.888 0-.35 0-.692.008-1.043.017-.427.008-.726-.129-1.017-.428-1.418-1.444-2.862-2.87-4.29-4.315-.144-.145-.238-.333-.35-.504l-2.683 2.709c.923.846 1.846 1.692 2.769 2.53H19.4c-.718-.018-1.23-1.317-1.333-1.582-.129-.333-.043-1.657 0-3.315.008-.205.17-.453.333-.607 5.904-5.913 11.81-11.826 17.722-17.73.786-.787 1.547-1.582 2.359-2.333.222-.206.59-.35.897-.368.923-.051 1.846-.017 2.769-.017 1.23 0 1.896.667 1.896 1.897v22.183c-.008 1.196-.683 1.871-1.862 1.871-.898 0-1.803-.026-2.7.009-.48.017-.795-.146-1.12-.479-3.145-3.17-6.306-6.323-9.46-9.476-.127-.128-.264-.248-.375-.36-.863.872-1.7 1.727-2.615 2.65zm-6.417-9.426c2.888-2.751 5.674-5.614 8.485-8.442.308-.316.624-.453 1.068-.445 1.47.026 2.94.009 4.427.009L18.05 15.459M23.057.009a2788.602 2788.602 0 00-5.041 5.05v-3.4c0-.018 0-.07.008-.129.06-.64.538-1.068.573-1.094.418-.359.897-.393 1.06-.41.05 0 .093 0 .11-.008C20.28 0 21.835 0 23.057.009z" fill="#231F20"/></svg>