<svg width="169" height="46" fill="none" xmlns="http://www.w3.org/2000/svg"><path d="M61.444 13.618h3.953v7.8h.074c.4-.68.814-1.302 1.199-1.938l4.01-5.862h4.9l-5.846 7.52 6.157 10.139H71.23l-4.323-7.623-1.524 1.865v5.758H61.43v-17.66h.014zm21.685 0h4.011v14.298h7.016v3.36H83.13V13.618zm23.001 0v17.658h-4.011V13.618h4.011zm9.059 0h10.791v3.27h-6.779v4.042h6.335v3.242h-6.335v7.104h-4.012V13.618zm29.915 10.183h-6.498v4.19h7.253v3.27h-11.25V13.619h10.895v3.27h-6.898v3.672h6.498V23.8zm18.384 7.475l-1.599-3.198c-.651-1.228-1.08-2.146-1.569-3.167h-.059c-.37 1.021-.814 1.939-1.362 3.167l-1.465 3.198h-4.559l5.107-8.926-4.929-8.718h4.588l1.54 3.227c.518 1.08.917 1.939 1.332 2.93h.059c.414-1.125.755-1.909 1.199-2.93l1.495-3.227h4.559l-4.973 8.615 5.239 9.044h-4.603v-.015zm-149.718.446l4.499-4.589c.193.178.43.385.651.622A8744.347 8744.347 0 0135.306 44.17c.563.563 1.125.859 1.94.83 1.553-.06 3.122-.016 4.677-.016 2.042-.015 3.212-1.184 3.226-3.241.015-2.028 0-4.041 0-6.07V3.318C45.15 1.2 43.98.046 41.863.03c-1.598 0-3.197-.06-4.795.03-.533.029-1.17.28-1.555.636-1.406 1.302-2.738 2.679-4.085 4.04a20011.037 20011.037 0 00-30.684 30.7c-.282.281-.563.696-.578 1.051a82.554 82.554 0 000 5.743c.045 1.362 1.066 2.59 2.324 2.664 2.102.119 4.219.03 6.32.03.075-.118.163-.222.237-.34-1.465-1.347-2.945-2.694-4.366-3.997l4.648-4.692c.207.296.37.622.607.873 2.472 2.502 4.973 4.959 7.43 7.475.503.518 1.021.755 1.762.74 2.264-.044 4.544-.015 6.808-.015.297 0 .593-.044 1.096-.074-4.544-4.529-8.955-8.88-13.263-13.173zM26.853.016c-2.575 0-5.121.03-7.667-.015-.785-.015-1.318.222-1.85.77-4.87 4.9-9.681 9.873-14.699 14.624-1.865 1.776-2.62 3.42-2.56 6.143.014 1.717.044 3.42.044 5.225C9.092 17.808 17.929 8.956 26.854.016zm-18.029 0c-2.013 0-3.952-.03-5.906.015C1.558.06.314 1.052.225 2.443.092 4.501.195 6.588.195 8.66 3.068 5.76 5.91 2.932 8.826.016z" fill="#231F20"/><path d="M13.77 31.722c4.455 4.425 8.91 8.836 13.351 13.262-.251 0-.666-.015-1.184-.015-3.108-.03-4.648 0-5.003 0-.607 0-1.199.015-1.806.03-.74.015-1.258-.222-1.761-.74-2.457-2.502-4.959-4.974-7.43-7.475-.252-.252-.415-.578-.608-.873-1.628 1.642-3.078 3.108-4.647 4.692 1.598 1.465 3.197 2.93 4.795 4.381H2.491c-1.244-.03-2.132-2.28-2.31-2.738-.221-.578-.073-2.872 0-5.743.016-.356.297-.785.578-1.051 10.228-10.243 20.456-20.486 30.7-30.714 1.361-1.362 2.678-2.739 4.085-4.041.384-.356 1.02-.607 1.554-.637 1.598-.089 3.197-.03 4.796-.03 2.131 0 3.286 1.155 3.286 3.287v38.426c-.015 2.072-1.184 3.241-3.227 3.241-1.554 0-3.123-.044-4.678.015-.828.03-1.376-.252-1.939-.829-5.447-5.492-10.923-10.953-16.385-16.415-.222-.222-.46-.43-.652-.622-1.495 1.51-2.945 2.99-4.53 4.589zM2.654 15.395C7.657 10.629 12.482 5.67 17.352.77c.533-.547 1.08-.784 1.85-.77 2.546.045 5.092.015 7.668.015L.152 26.777M8.825.015A4797.7 4797.7 0 00.092 8.763v-5.89c0-.03 0-.12.015-.223C.21 1.54 1.039.8 1.098.755c.726-.621 1.555-.68 1.836-.71.089 0 .163 0 .192-.015C4.014 0 6.708 0 8.825.015z" fill="#231F20"/></svg>