<svg width="17" height="17" fill="none" xmlns="http://www.w3.org/2000/svg"><path d="M8.5 2.059l3-1.5 3.5 1 1.5 2-.5 3-3 3.5-3 3-2 1-1.5-1.5-2-2-3.5-4L.5 4.5l1-1.941 1-1.5 2-.5 4 1.5z"/><path class="center" d="M15.592 1.397a4.724 4.724 0 00-6.707 0l-.385.386-.384-.386a4.725 4.725 0 00-6.708 0A4.818 4.818 0 000 4.812C0 6.1.5 7.313 1.408 8.228l6.681 6.716a.577.577 0 00.411.174.577.577 0 00.41-.174l6.682-6.716A4.819 4.819 0 0017 4.812c0-1.288-.5-2.5-1.408-3.415zm-.822 5.915L8.5 13.615 2.23 7.313a3.53 3.53 0 010-5 3.555 3.555 0 012.532-1.055c.917 0 1.834.352 2.532 1.055l.795.8c.23.231.592.231.822 0l.795-.8a3.566 3.566 0 015.064 0 3.53 3.53 0 010 5z"/></svg>