<svg width="40" height="40" fill="none" xmlns="http://www.w3.org/2000/svg"><path d="M20.647 32.4h-1.932a2.468 2.468 0 00-2.466 2.466v2.668A2.468 2.468 0 0018.715 40h1.932a2.468 2.468 0 002.467-2.466v-2.668a2.466 2.466 0 00-2.467-2.466zM7.025 11.748l3.564.444c1.13.14 2.203-.51 2.61-1.574.514-1.345 1.229-2.405 2.146-3.178 1.299-1.093 2.914-1.644 4.846-1.644 2.002 0 3.597.526 4.78 1.574 1.184 1.053 1.772 2.31 1.772 3.786 0 1.06-.333 2.03-.999 2.91-.431.56-1.759 1.735-3.975 3.531-2.22 1.797-3.695 3.416-4.435 4.855-.756 1.471-1.02 3.103-1.085 4.74a2.466 2.466 0 002.466 2.569h2.015a2.472 2.472 0 002.458-2.257c.082-.917.234-1.612.464-2.084.386-.81 1.385-1.879 2.988-3.21 3.104-2.57 5.126-4.6 6.076-6.097.945-1.492 1.422-3.074 1.422-4.747 0-3.022-1.286-5.673-3.864-7.95C27.701 1.139 24.232 0 19.874 0 15.732 0 12.39 1.122 9.842 3.37c-2.17 1.916-3.49 4.185-3.955 6.804a1.329 1.329 0 001.139 1.574z" fill="#1777BD"/></svg>