<svg width="69" height="69" viewBox="0 0 69 69" fill="none" xmlns="http://www.w3.org/2000/svg">
<circle cx="34.5" cy="34.5" r="34.5" fill="#F5F5F5"/>
<path d="M50.9008 27.6972C50.8205 25.9408 50.5415 24.7414 50.1337 23.692C49.7195 22.591 49.0699 21.5938 48.2305 20.7695C47.4065 19.9301 46.409 19.2803 45.308 18.8658C44.2584 18.4582 43.0592 18.1795 41.3028 18.0997C39.5432 18.0191 38.981 18 34.5 18C30.019 18 29.4568 18.0191 27.6972 18.0992C25.9408 18.1795 24.7416 18.4585 23.692 18.8663C22.591 19.2805 21.5938 19.9301 20.7695 20.7695C19.9301 21.5935 19.2803 22.5908 18.8658 23.6918C18.4582 24.7414 18.1795 25.9408 18.0997 27.6969C18.0191 29.4568 18 30.0187 18 34.4997C18 38.981 18.0191 39.5432 18.0997 41.3028C18.1798 43.0589 18.4587 44.2584 18.8666 45.308C19.2808 46.4087 19.9303 47.4062 20.7697 48.2303C21.5938 49.0697 22.5913 49.7192 23.6923 50.1334C24.7416 50.5415 25.9411 50.8202 27.6974 50.9006C29.4573 50.9809 30.0192 50.9997 34.5003 50.9997C38.9813 50.9997 39.5435 50.9809 41.3031 50.9006C43.0594 50.8202 44.2586 50.5415 45.3082 50.1334C47.5246 49.2764 49.2766 47.5243 50.1337 45.308C50.5418 44.2584 50.8205 43.0589 50.9008 41.3028C50.9809 39.543 51 38.981 51 34.5C51 30.0187 50.9809 29.4568 50.9008 27.6972ZM47.9307 41.1676C47.8574 42.7764 47.5885 43.6501 47.3627 44.2314C46.8075 45.6705 45.6703 46.8078 44.2312 47.3629C43.6498 47.5888 42.7762 47.8577 41.1674 47.9309C39.4279 48.0105 38.906 48.0271 34.5 48.0271C30.0938 48.0271 29.5721 48.0105 27.8324 47.9309C26.2238 47.8577 25.3502 47.5888 24.7686 47.3629C24.052 47.0983 23.4037 46.6766 22.8715 46.1285C22.3234 45.5963 21.9017 44.9482 21.6371 44.2314C21.4112 43.6501 21.1423 42.7764 21.0691 41.1676C20.9898 39.4279 20.9729 38.906 20.9729 34.5003C20.9729 30.0943 20.9898 29.5726 21.0691 27.8326C21.1426 26.2238 21.4112 25.3502 21.6371 24.7688C21.9017 24.052 22.3236 23.4037 22.8715 22.8715C23.4037 22.3234 24.052 21.9017 24.7688 21.6373C25.3502 21.4112 26.2238 21.1426 27.8326 21.0691C29.5724 20.9898 30.0943 20.9729 34.5 20.9729H34.4997C38.9055 20.9729 39.4274 20.9898 41.1674 21.0693C42.7762 21.1426 43.6496 21.4115 44.2312 21.6373C44.9477 21.9019 45.596 22.3236 46.1283 22.8715C46.6764 23.4037 47.0981 24.052 47.3624 24.7688C47.5885 25.3502 47.8574 26.2238 47.9307 27.8326C48.01 29.5724 48.0268 30.0943 48.0268 34.5C48.0268 38.906 48.0102 39.4276 47.9307 41.1676Z" fill="url(#paint0_linear)"/>
<path d="M34.4997 26.0271C29.8203 26.0271 26.0269 29.8208 26.0269 34.5002C26.0269 39.1796 29.8203 42.973 34.4997 42.973C39.1793 42.973 42.9727 39.1796 42.9727 34.5002C42.9727 29.8208 39.1793 26.0271 34.4997 26.0271ZM34.4997 40.0001C31.4623 39.9998 28.9998 37.5375 29 34.4999C29 31.4626 31.4623 29 34.4999 29C37.5375 29.0003 39.9998 31.4626 39.9998 34.4999C39.9998 37.5375 37.5373 40.0001 34.4997 40.0001Z" fill="url(#paint1_linear)"/>
<path d="M45.2877 25.6923C45.2877 26.7858 44.4012 27.6722 43.3078 27.6722C42.2141 27.6722 41.3276 26.7858 41.3276 25.6923C41.3276 24.5986 42.2141 23.7122 43.3078 23.7122C44.4012 23.7122 45.2877 24.5986 45.2877 25.6923Z" fill="url(#paint2_linear)"/>
<defs>
<linearGradient id="paint0_linear" x1="20.7693" y1="48.2304" x2="48.2307" y2="20.769" gradientUnits="userSpaceOnUse">
<stop stop-color="#FFD600"/>
<stop offset="0.5" stop-color="#FF0100"/>
<stop offset="1" stop-color="#D800B9"/>
</linearGradient>
<linearGradient id="paint1_linear" x1="28.5086" y1="40.4913" x2="40.4911" y2="28.5088" gradientUnits="userSpaceOnUse">
<stop stop-color="#FF6400"/>
<stop offset="0.5" stop-color="#FF0100"/>
<stop offset="1" stop-color="#FD0056"/>
</linearGradient>
<linearGradient id="paint2_linear" x1="41.9077" y1="27.0923" x2="44.7078" y2="24.2922" gradientUnits="userSpaceOnUse">
<stop stop-color="#F30072"/>
<stop offset="1" stop-color="#E50097"/>
</linearGradient>
</defs>
</svg>
