<svg width="69" height="69" viewBox="0 0 69 69" fill="none" xmlns="http://www.w3.org/2000/svg">
<path d="M34.5 69C53.5538 69 69 53.5538 69 34.5C69 15.4462 53.5538 0 34.5 0C15.4462 0 0 15.4462 0 34.5C0 53.5538 15.4462 69 34.5 69Z" fill="#039BE5"/>
<path d="M15.787 33.7524L49.0508 20.927C50.5946 20.3692 51.943 21.3036 51.4428 23.6381L51.4456 23.6352L45.7819 50.3181C45.3621 52.2099 44.238 52.6699 42.6654 51.7786L34.0404 45.422L29.8803 49.4297C29.4203 49.8897 29.0321 50.2779 28.1409 50.2779L28.7533 41.5005L44.7383 27.0594C45.434 26.447 44.583 26.102 43.6659 26.7115L23.9118 39.1487L15.396 36.4922C13.5474 35.9057 13.5071 34.6436 15.787 33.7524Z" fill="white"/>
</svg>
