<svg width="64" height="64" fill="none" xmlns="http://www.w3.org/2000/svg"><path d="M32 17.82c-10.53 0-19.428 4.4-19.428 9.609.017.852.25 1.687.679 2.424C17.065 26.264 24.19 24 32 24c7.81 0 14.936 2.264 18.75 5.853a5.029 5.029 0 00.678-2.424c0-5.21-8.897-9.61-19.428-9.61z" fill="#1777BD"/><path d="M32 8C14.354 8 0 16.72 0 27.429v9.143C0 47.28 14.354 56 32 56s32-8.72 32-19.429V27.43C64 16.72 49.646 8 32 8zM4.034 30.823a1.394 1.394 0 01-.297.034 1.136 1.136 0 01-1.109-.846 9.898 9.898 0 01-.342-2.582 9.68 9.68 0 01.091-1.292 1.141 1.141 0 012.263.297 7.25 7.25 0 00-.069.994c.003.672.091 1.34.263 1.99a1.146 1.146 0 01-.8 1.405zm2.286-8.446c-.218.301-.566.48-.937.48a1.141 1.141 0 01-.926-1.806c2.926-4.137 8.697-7.542 15.829-9.348a1.145 1.145 0 01.571 2.217C14.23 15.6 8.937 18.674 6.32 22.377zM32 39.326c-12.171 0-21.714-5.223-21.714-11.897 0-6.675 9.543-11.898 21.714-11.898s21.714 5.223 21.714 11.897c0 6.675-9.543 11.898-21.714 11.898zm21.154.068a1.132 1.132 0 01-1.566-.411 1.15 1.15 0 01.4-1.566c4.8-2.811 7.44-6.354 7.44-9.989a7.859 7.859 0 00-.262-1.988 1.142 1.142 0 012.205-.594c.228.842.343 1.71.343 2.582 0 4.48-3.04 8.732-8.56 11.966z" fill="#1777BD"/></svg>