<svg width="76" height="76" fill="none" xmlns="http://www.w3.org/2000/svg"><g clip-path="url(#clip0)"><path d="M74.993 36.639l-8.528-6.475a2.545 2.545 0 00-4.085 2.028v3.962h-2.523V32.15a2.546 2.546 0 00-2.546-2.546h-5.069v-9.456a2.547 2.547 0 00-2.546-2.546h-7.919v-2.703h2.132a2.547 2.547 0 000-5.092h-16.45a2.546 2.546 0 000 5.092h2.134v2.703H19.75a2.547 2.547 0 00-2.547 2.546v4.97h-4.972a2.546 2.546 0 00-2.547 2.546v5.825H5.092v-7.224a2.546 2.546 0 00-5.092 0v26.632a2.546 2.546 0 105.092 0v-7.225h4.593v5.971a2.546 2.546 0 002.546 2.546h6.403l8.983 11.063c.484.595 1.21.94 1.977.94H57.31a2.546 2.546 0 002.546-2.546v-3.364h2.523v3.364a2.547 2.547 0 004.203 1.933l8.529-7.31c.564-.484.889-1.19.889-1.933v-17.67a2.55 2.55 0 00-1.008-2.027z" fill="#1777BD"/><path d="M68 40c3.928 5.556 4.474 11.644 0 17.064" stroke="#fff" stroke-width="2" stroke-linecap="round"/></g><defs><clipPath id="clip0"><path fill="#fff" d="M0 0h76v76H0z"/></clipPath></defs></svg>