<svg width="52" height="52" fill="none" xmlns="http://www.w3.org/2000/svg"><path d="M21.256 17.863l-2.61 16.24h4.171l2.608-16.24h-4.17zm12.582 6.616c-1.458-.72-2.351-1.206-2.351-1.942.018-.67.755-1.355 2.403-1.355a7.259 7.259 0 013.107.601l.379.169.567-3.398c-.824-.318-2.13-.67-3.744-.67-4.12 0-7.02 2.142-7.038 5.206-.034 2.26 2.076 3.515 3.656 4.267 1.614.772 2.163 1.272 2.163 1.958-.018 1.053-1.305 1.539-2.506 1.539-1.663 0-2.557-.25-3.914-.837l-.55-.25-.583 3.53c.98.437 2.782.82 4.653.84 4.377 0 7.226-2.11 7.262-5.374.014-1.791-1.099-3.163-3.504-4.284zm14.799-6.565H45.41c-.995 0-1.75.286-2.181 1.306l-6.196 14.884h4.377l1.206-3.223h4.898l.625 3.236h3.862l-3.364-16.203zM43.83 27.63c.085.008 1.68-5.26 1.68-5.26l1.271 5.26h-2.95zm-28.67-9.767l-4.087 11.034-.445-2.176c-.755-2.51-3.125-5.239-5.769-6.594l3.743 13.96h4.413l6.559-16.222H15.16v-.002z" fill="#2394BC"/><path d="M9.253 19.958c-.319-1.238-1.334-2.073-2.714-2.091H.067l-.067.3c5.049 1.245 9.287 5.075 10.662 8.678l-1.41-6.887z" fill="#EFC75E"/></svg>