<svg width="9" height="9" viewBox="0 0 9 9" fill="none" xmlns="http://www.w3.org/2000/svg">
<g clip-path="url(#clip0)">
<path d="M4.85118 7.00006L8.85622 2.99495C8.94893 2.90231 9 2.77866 9 2.6468C9 2.51495 8.94893 2.39129 8.85622 2.29866L8.56135 2.00371C8.3692 1.81179 8.05691 1.81179 7.86506 2.00371L4.50187 5.3669L1.13494 1.99998C1.04224 1.90735 0.918651 1.8562 0.786871 1.8562C0.654945 1.8562 0.531361 1.90735 0.438581 1.99998L0.143779 2.29493C0.0510721 2.38764 -2.86318e-08 2.51122 -3.43953e-08 2.64307C-4.01587e-08 2.77493 0.0510721 2.89858 0.143779 2.99122L4.15248 7.00006C4.24548 7.09291 4.36965 7.14391 4.50165 7.14362C4.63416 7.14391 4.75825 7.09291 4.85118 7.00006Z" fill="white"/>
</g>
<defs>
<clipPath id="clip0">
<rect width="9" height="9" fill="white" transform="translate(9) rotate(90)"/>
</clipPath>
</defs>
</svg>
