<svg width="11" height="11" viewBox="0 0 11 11" fill="none" xmlns="http://www.w3.org/2000/svg">
<g clip-path="url(#clip0)">
<path d="M8.55549 5.92922L3.66036 10.8243C3.54714 10.9376 3.396 11 3.23485 11C3.07369 11 2.92256 10.9376 2.80934 10.8243L2.44885 10.4639C2.21427 10.229 2.21427 9.84733 2.44885 9.61285L6.55941 5.50228L2.44428 1.38715C2.33107 1.27384 2.26855 1.1228 2.26855 0.961733C2.26855 0.80049 2.33107 0.649443 2.44428 0.536045L2.80478 0.175731C2.91808 0.0624227 3.06913 8.83685e-07 3.23029 8.69597e-07C3.39144 8.55509e-07 3.54258 0.0624226 3.65579 0.175731L8.55549 5.07525C8.66898 5.18892 8.73131 5.34068 8.73096 5.50201C8.73131 5.66397 8.66898 5.81564 8.55549 5.92922Z" fill="white"/>
</g>
<defs>
<clipPath id="clip0">
<rect width="11" height="11" fill="white" transform="matrix(1 -8.74228e-08 -8.74228e-08 -1 0 11)"/>
</clipPath>
</defs>
</svg>
