<svg width="18" height="17" viewBox="0 0 18 17" fill="none" xmlns="http://www.w3.org/2000/svg">

        <path d="M17.8961 3.55181C17.7931 3.41234 17.6273 3.32614 17.4472 3.31887L6.28162 2.86432C5.96126 2.85108 5.69354 3.08467 5.67985 3.38583C5.66623 3.68687 5.91316 3.94123 6.23199 3.95416L16.6416 4.37797L14.5949 10.4092H5.48658L3.84103 1.94709C3.80486 1.76162 3.67003 1.6069 3.48409 1.538L0.788965 0.538018C0.491927 0.428185 0.156743 0.56598 0.0400873 0.846173C-0.0763671 1.12652 0.069493 1.44327 0.366369 1.55345L2.76277 2.44257L4.43736 11.0532C4.48783 11.3121 4.7267 11.5001 5.00549 11.5001H5.28328L4.64896 13.1641C4.59587 13.3035 4.61774 13.4583 4.70809 13.5794C4.79832 13.7005 4.94507 13.7726 5.10173 13.7726H5.54664C5.27095 14.0624 5.10173 14.4439 5.10173 14.8635C5.10173 15.7658 5.87912 16.4998 6.83432 16.4998C7.78952 16.4998 8.56692 15.7658 8.56692 14.8635C8.56692 14.444 8.39769 14.0624 8.12205 13.7726H11.8995C11.6237 14.0624 11.4546 14.4439 11.4546 14.8635C11.4546 15.7658 12.2317 16.4998 13.1872 16.4998C14.1426 16.4998 14.9197 15.7658 14.9197 14.8635C14.9197 14.444 14.7506 14.0624 14.475 13.7726H15.016C15.2819 13.7726 15.4973 13.5691 15.4973 13.3181C15.4973 13.067 15.2818 12.8635 15.016 12.8635H5.78651L6.30623 11.4999H15.016C15.2671 11.4999 15.4894 11.3467 15.5659 11.121L17.9723 4.03014C18.0275 3.8683 17.9992 3.69136 17.8961 3.55181ZM6.83436 15.5909C6.40967 15.5909 6.0643 15.2648 6.0643 14.8637C6.0643 14.4626 6.40967 14.1364 6.83436 14.1364C7.25905 14.1364 7.60439 14.4626 7.60439 14.8637C7.60439 15.2648 7.25905 15.5909 6.83436 15.5909ZM13.1872 15.5909C12.7625 15.5909 12.4171 15.2648 12.4171 14.8637C12.4171 14.4626 12.7625 14.1364 13.1872 14.1364C13.6118 14.1364 13.9572 14.4626 13.9572 14.8637C13.9572 15.2648 13.6118 15.5909 13.1872 15.5909Z"
              fill="#4E4E4E"/>

</svg>
