<svg width="11" height="11" viewBox="0 0 11 11" fill="none" xmlns="http://www.w3.org/2000/svg">
<g clip-path="url(#clip0)">
<path d="M5.92922 8.55549L10.8243 3.66036C10.9376 3.54714 11 3.396 11 3.23485C11 3.07369 10.9376 2.92256 10.8243 2.80934L10.4639 2.44885C10.229 2.21427 9.84733 2.21427 9.61285 2.44885L5.50228 6.55941L1.38715 2.44429C1.27384 2.33107 1.1228 2.26855 0.961733 2.26855C0.80049 2.26855 0.649443 2.33107 0.536045 2.44429L0.175731 2.80478C0.0624228 2.91809 9.63221e-07 3.06913 9.65143e-07 3.23029C9.67065e-07 3.39144 0.0624228 3.54258 0.175731 3.6558L5.07525 8.55549C5.18892 8.66898 5.34068 8.73131 5.50201 8.73096C5.66397 8.73131 5.81564 8.66898 5.92922 8.55549Z" fill="#1777BD"/>
</g>
<defs>
<clipPath id="clip0">
<rect width="11" height="11" fill="white" transform="translate(11) rotate(90)"/>
</clipPath>
</defs>
</svg>
