<svg width="46" height="46" viewBox="0 0 46 46" fill="none" xmlns="http://www.w3.org/2000/svg">
<g clip-path="url(#clip0)">
<path d="M46 5.27095C46 2.36331 43.6367 0 40.729 0H5.27095C2.36331 0 0 2.36331 0 5.27095V40.729C0 43.6367 2.36331 46 5.27095 46H40.729C43.6367 46 46 43.6367 46 40.729V5.27095Z" fill="#4CAF50"/>
<path d="M34.6572 15.4157C35.4065 16.165 35.4065 17.3762 34.6572 18.1258L22.1988 30.5839C21.825 30.9577 21.3344 31.1458 20.8437 31.1458C20.3531 31.1458 19.8625 30.9577 19.4887 30.5839L13.2597 24.3548C12.51 23.6056 12.51 22.3941 13.2597 21.6448C14.009 20.8952 15.2201 20.8952 15.9697 21.6448L20.8437 26.5188L31.9472 15.4157C32.6965 14.6661 33.9076 14.6661 34.6572 15.4157Z" fill="#FAFAFA"/>
</g>
<defs>
<clipPath id="clip0">
<rect width="46" height="46" fill="white"/>
</clipPath>
</defs>
</svg>
