<svg width="17" height="17" viewBox="0 0 17 17" fill="none" xmlns="http://www.w3.org/2000/svg">
<g clip-path="url(#clip0)">
<path d="M10.0575 8.51607L16.6769 1.8964C17.1077 1.46582 17.1077 0.769631 16.6769 0.33905C16.2463 -0.0915321 15.5502 -0.0915321 15.1196 0.33905L8.49991 6.95871L1.88044 0.33905C1.44966 -0.0915321 0.753669 -0.0915321 0.323088 0.33905C-0.107696 0.769631 -0.107696 1.46582 0.323088 1.8964L6.94255 8.51607L0.323088 15.1357C-0.107696 15.5663 -0.107696 16.2625 0.323088 16.6931C0.537673 16.9079 0.81982 17.0158 1.10177 17.0158C1.38371 17.0158 1.66566 16.9079 1.88044 16.6931L8.49991 10.0734L15.1196 16.6931C15.3344 16.9079 15.6163 17.0158 15.8982 17.0158C16.1802 17.0158 16.4621 16.9079 16.6769 16.6931C17.1077 16.2625 17.1077 15.5663 16.6769 15.1357L10.0575 8.51607Z" fill="white"/>
</g>
<defs>
<clipPath id="clip0">
<rect width="17" height="17" fill="white"/>
</clipPath>
</defs>
</svg>
