<svg width="48" height="48" viewBox="0 0 48 48" fill="none" xmlns="http://www.w3.org/2000/svg">
<path fill-rule="evenodd" clip-rule="evenodd" d="M34.2188 10.0327C38.3804 10.9984 39.9723 13.4319 41.9681 16.7812H34.2188V10.0327ZM9.89795 17.0625C10.7128 17.0625 11.3042 17.4558 11.3042 18.375C11.3042 19.1503 10.6769 19.7791 9.90198 19.7812H1.40625C0.629517 19.7812 0 20.4111 0 21.1875C0 21.9642 0.629517 22.5938 1.40625 22.5938H14.0625C14.8466 22.5938 15.4742 23.2229 15.4742 24C15.4742 24.7767 14.8447 25.4062 14.068 25.4062H1.40625C0.629517 25.4062 0 26.0358 0 26.8125C0 27.5892 0.629517 28.2188 1.40625 28.2188H4.5V32.4375C4.5 33.2142 5.12952 33.8438 5.90625 33.8438H8.73303C9.23694 36.3259 11.4302 38.1562 14.0156 38.1562C16.6011 38.1562 18.7943 36.3259 19.2982 33.8438H33.5768C34.0807 36.3259 36.2739 38.1562 38.8594 38.1562C41.4448 38.1562 43.6381 36.3259 44.142 33.8438H46.5938C47.3705 33.8438 48 33.2142 48 32.4375V24C48 19.8739 43.6479 19.6 43.6439 19.5938H32.8125C32.0358 19.5938 31.4062 18.9642 31.4062 18.1875V9.75H5.90625C5.12952 9.75 4.5 10.3795 4.5 11.1562V14.25H2.8125C2.03577 14.25 1.40625 14.8795 1.40625 15.6562C1.40625 16.433 2.03577 17.0625 2.8125 17.0625H9.89795ZM40.6824 30.9426C41.6891 31.9493 41.6891 33.5823 40.6824 34.589C39.063 36.2084 36.2812 35.0563 36.2812 32.7656C36.2812 30.4753 39.063 29.3232 40.6824 30.9426ZM15.8386 30.9426C16.8453 31.9493 16.8453 33.5823 15.8386 34.589C14.2192 36.2084 11.4375 35.0563 11.4375 32.7656C11.4375 30.4753 14.2192 29.3232 15.8386 30.9426Z" fill="#1777BD"/>
</svg>
