<svg width="44" height="44" viewBox="0 0 44 44" fill="none" xmlns="http://www.w3.org/2000/svg">
<path d="M42.8673 7.74286H1.13272C0.506374 7.74286 0 8.25001 0 8.87558V35.1252C0 35.7508 0.506374 36.2579 1.13272 36.2579H42.8673C43.4936 36.2579 44 35.7508 44 35.1252V8.87558C44 8.25001 43.4936 7.74286 42.8673 7.74286ZM3.40673 16.3598H8.10276C8.73612 16.3839 9.24639 16.5857 9.42245 17.2627L10.4438 22.1745C9.44037 19.6053 7.02224 17.4676 3.36778 16.5826L3.40673 16.3598ZM9.08902 27.5623L6.37642 18.2949C8.32635 19.5429 9.98725 21.5232 10.5723 22.9014L10.8886 24.0458L13.8552 16.4665H17.0648L12.2948 27.56L9.08902 27.5623ZM19.4237 27.5701H16.3948L18.2887 16.4548H21.3191L19.4237 27.5701ZM24.6947 27.7368C23.3368 27.7228 22.0288 27.4541 21.3199 27.1432L21.746 24.6557L22.1363 24.8326C23.1312 25.2478 23.7754 25.4161 24.9884 25.4161C25.8586 25.4161 26.7911 25.0756 26.7996 24.3309C26.8051 23.844 26.4093 23.4965 25.2299 22.9512C24.08 22.4199 22.5578 21.5287 22.5765 19.9324C22.5928 17.7722 24.7025 16.2647 27.6963 16.2647C28.8695 16.2647 29.8098 16.5062 30.4097 16.7314L30.0007 19.1409L29.7273 19.0124C29.1695 18.788 28.452 18.5715 27.4603 18.5871C26.2746 18.5871 25.7246 19.081 25.7246 19.5429C25.7183 20.0633 26.3665 20.4061 27.426 20.9218C29.1734 21.7149 29.9812 22.677 29.9703 23.9414C29.947 26.2473 27.8802 27.7368 24.6947 27.7368ZM37.8215 27.5748C37.8215 27.5748 37.5449 26.2972 37.453 25.9092C37.012 25.9092 33.9208 25.9045 33.5734 25.9045C33.4557 26.2045 32.9369 27.5748 32.9369 27.5748H29.7561L34.2535 17.3889C34.5729 16.6652 35.1143 16.4665 35.8404 16.4665H38.1806L40.6322 27.574L37.8215 27.5748Z" fill="#1777BD"/>
<path d="M36.2579 20.4224L36.0538 19.4642C35.8996 19.8826 35.6339 20.5549 35.6511 20.5253C35.6511 20.5253 34.6936 22.9925 34.4443 23.6321H36.9598C36.8383 23.0751 36.2579 20.4224 36.2579 20.4224Z" fill="#1777BD"/>
</svg>
