<svg width="44" height="44" viewBox="0 0 44 44" fill="none" xmlns="http://www.w3.org/2000/svg">
<g clip-path="url(#clip0)">
<path d="M12.1902 24.076C16.0322 22.7572 19.2097 23.8651 20.9251 24.7707H29.8767C31.5395 24.7707 32.9918 25.6984 33.7592 27.0694L36.4981 25.1187V1.87769H27.2034V16.9527H18.1753V1.87769H8.88086V25.9929C9.7215 25.2515 10.8074 24.5507 12.1902 24.076Z" fill="#1777BD"/>
<path d="M20.7549 1.87769H24.6247V14.3735H20.7549V1.87769Z" fill="#1777BD"/>
<path d="M43.4041 27.308C42.9066 26.6095 42.167 26.1467 41.3214 26.0046C40.4757 25.8621 39.6255 26.058 38.9271 26.5555L34.3041 29.848C34.0337 32.0817 32.1523 33.8174 29.8772 33.8174H24.3273V31.2382H29.8772C30.9152 31.2382 31.7596 30.366 31.7596 29.294C31.7596 28.222 30.9152 27.3499 29.8772 27.3499H20.2541L20.2521 27.3502C18.812 26.3668 16.1552 25.4421 13.0282 26.5156C10.2944 27.4541 9.1466 29.563 8.85645 30.1946V42.1227H28.0994L42.6527 31.784C43.3499 31.2875 43.8129 30.5478 43.955 29.7023C44.0972 28.8567 43.9015 28.0063 43.4041 27.308Z" fill="#1777BD"/>
<path d="M0 27.8748H6.27701V42.1225H0V27.8748Z" fill="#1777BD"/>
</g>
<defs>
<clipPath id="clip0">
<rect width="44" height="44" fill="white"/>
</clipPath>
</defs>
</svg>
