<svg width="45" height="45" viewBox="0 0 45 45" fill="none" xmlns="http://www.w3.org/2000/svg">
<g clip-path="url(#clip0)">
<path d="M42.3632 11.9501H42.035V29.8228C42.035 32.7306 39.6694 35.0962 36.7616 35.0962H5.60156V35.4244C5.60156 36.8807 6.78202 38.0611 8.23828 38.0611H42.3632C43.8195 38.0611 44.9999 36.8807 44.9999 35.4244V14.5869C44.9999 13.1306 43.8195 11.9501 42.3632 11.9501Z" fill="#1777BD"/>
<path d="M39.3984 29.8228V9.57538C39.3984 8.11921 38.2179 6.93866 36.7617 6.93866H2.63672C1.18046 6.93866 0 8.11921 0 9.57538V29.8228C0 31.279 1.18046 32.4595 2.63672 32.4595H36.7617C38.2178 32.4595 39.3984 31.2791 39.3984 29.8228ZM4.20126 11.4954H11.0294V14.1322H4.20126V11.4954ZM13.95 19.7338H4.20126V17.0971H13.95V19.7338ZM35.115 28.1763H32.4783V25.5396H35.115V28.1763Z" fill="#1777BD"/>
</g>
<defs>
<clipPath id="clip0">
<rect width="45" height="45" fill="white"/>
</clipPath>
</defs>
</svg>
