<svg width="46" height="46" viewBox="0 0 46 46" fill="none" xmlns="http://www.w3.org/2000/svg">
<path d="M33.3962 28.8453C33.6356 28.3963 33.9892 28.0182 34.4212 27.7494C34.8533 27.4805 35.3486 27.3302 35.8572 27.3137L37.006 23H18.9058C18.8346 23.131 18.7582 23.2602 18.6766 23.3877L18.1758 24.2029L33.3962 28.8453Z" fill="#1777BD"/>
<path d="M37.375 18.6875C37.3759 17.9253 37.679 17.1945 38.218 16.6555C38.757 16.1165 39.4878 15.8134 40.25 15.8125V7.90625C39.6128 7.90544 38.9938 7.69334 38.49 7.30316C37.9863 6.91298 37.6261 6.36675 37.4659 5.75H13.5653C13.4359 6.24685 13.1763 6.70019 12.8133 7.06322C12.4502 7.42626 11.9969 7.68586 11.5 7.81524V15.9035C12.2175 16.0902 12.8356 16.5459 13.2261 17.1761L15.2512 14.6445C15.3661 14.5009 15.5317 14.4068 15.7138 14.3815C15.896 14.3562 16.0809 14.4017 16.2305 14.5087L17.0847 15.1188C18.2909 15.9775 19.143 17.2461 19.4817 18.6875H37.375ZM34.5 8.625H38.8125V10.0625H34.5V8.625ZM25.875 7.1875C26.8701 7.1875 27.8428 7.48258 28.6702 8.03542C29.4976 8.58826 30.1425 9.37403 30.5233 10.2934C30.9041 11.2127 31.0037 12.2243 30.8096 13.2003C30.6154 14.1763 30.1363 15.0727 29.4326 15.7764C28.729 16.48 27.8325 16.9592 26.8565 17.1533C25.8806 17.3475 24.869 17.2478 23.9496 16.867C23.0303 16.4862 22.2445 15.8413 21.6917 15.014C21.1388 14.1866 20.8438 13.2138 20.8438 12.2188C20.8452 10.8848 21.3758 9.60599 22.319 8.66277C23.2622 7.71956 24.5411 7.189 25.875 7.1875Z" fill="#1777BD"/>
<path d="M25.875 15.8125C27.8598 15.8125 29.4688 14.2035 29.4688 12.2188C29.4688 10.234 27.8598 8.625 25.875 8.625C23.8902 8.625 22.2812 10.234 22.2812 12.2188C22.2812 14.2035 23.8902 15.8125 25.875 15.8125Z" fill="#1777BD"/>
<path d="M16.2037 30.9069L15.2525 28.962L14.375 30.3906V34.2574C15.0178 34.9506 15.8545 35.4341 16.776 35.6449C17.6976 35.8558 18.6613 35.7843 19.5416 35.4397L18.586 33.4858C17.5551 32.8798 16.7263 31.9825 16.2037 30.9069Z" fill="#1777BD"/>
<path d="M37.0909 28.2657C37.0435 28.4444 36.929 28.5979 36.7712 28.6943C36.6135 28.7907 36.4246 28.8225 36.244 28.7831C36.0595 28.7428 35.8689 28.7393 35.683 28.7726C35.4972 28.806 35.3197 28.8757 35.1608 28.9777C35.0018 29.0796 34.8645 29.2119 34.7568 29.367C34.649 29.522 34.5728 29.6968 34.5326 29.8813C34.5115 29.9785 34.4706 30.0702 34.4123 30.1507C34.354 30.2312 34.2796 30.2988 34.1939 30.3491C34.1082 30.3994 34.0129 30.4314 33.9142 30.443C33.8155 30.4547 33.7155 30.4457 33.6204 30.4167L17.3979 25.4687L16.416 27.0673L37.0961 32.8886C37.1188 32.8951 37.1425 32.8969 37.166 32.8942C37.1894 32.8914 37.2121 32.884 37.2327 32.8725C37.2533 32.861 37.2714 32.8455 37.286 32.827C37.3006 32.8084 37.3114 32.7872 37.3178 32.7645L40.0666 23H38.4932L37.0909 28.2657Z" fill="#1777BD"/>
<path d="M9.52363 2.875C9.28535 2.875 9.05683 2.96966 8.88834 3.13815C8.71985 3.30664 8.6252 3.53516 8.6252 3.77344V6.46875H8.57129V21.3828C8.57129 21.4305 8.59022 21.4762 8.62392 21.5099C8.65762 21.5436 8.70332 21.5625 8.75098 21.5625H9.7177L12.201 18.4582C12.1465 18.1236 11.9757 17.819 11.7186 17.598C11.4615 17.3769 11.1347 17.2537 10.7957 17.25C10.6032 17.2518 10.4179 17.1771 10.2805 17.0423C10.143 16.9075 10.0647 16.7237 10.0627 16.5312V7.1875C10.0623 7.09345 10.0805 7.00025 10.1162 6.91322C10.1518 6.82619 10.2043 6.74704 10.2706 6.68029C10.3368 6.61355 10.4156 6.56051 10.5023 6.52421C10.5891 6.48791 10.6822 6.46907 10.7762 6.46875C10.9658 6.46922 11.1536 6.43223 11.3289 6.3599C11.5041 6.28756 11.6634 6.18131 11.7974 6.04725C11.9315 5.91318 12.0378 5.75395 12.1101 5.5787C12.1824 5.40345 12.2194 5.21563 12.2189 5.02604C12.2193 4.93199 12.2381 4.83892 12.2744 4.75215C12.3107 4.66539 12.3637 4.58662 12.4305 4.52036C12.4972 4.45409 12.5764 4.40163 12.6634 4.36597C12.7504 4.3303 12.8436 4.31213 12.9377 4.3125H38.0894C38.2791 4.31054 38.4619 4.38399 38.5975 4.51673C38.7332 4.64946 38.8106 4.83062 38.8127 5.02038C38.811 5.25083 38.8647 5.47832 38.9694 5.68365C39.074 5.88899 39.2265 6.06616 39.4139 6.20023C39.6014 6.33429 39.8183 6.42133 40.0464 6.45399C40.2746 6.48665 40.5072 6.46398 40.7248 6.38789C40.8333 6.34845 40.9498 6.3358 41.0643 6.351C41.1788 6.36619 41.288 6.4088 41.3825 6.4752C41.477 6.54159 41.5541 6.62982 41.6072 6.73238C41.6604 6.83494 41.688 6.94881 41.6877 7.06432V16.6353C41.6904 16.7967 41.6403 16.9546 41.5451 17.085C41.4532 17.2076 41.3245 17.2978 41.1778 17.3422C41.0311 17.3867 40.874 17.3831 40.7294 17.3321C40.474 17.2419 40.1982 17.2256 39.934 17.2853C39.6697 17.345 39.4277 17.4781 39.2358 17.6693C39.0439 17.8606 38.91 18.1021 38.8494 18.3662C38.7889 18.6303 38.8042 18.906 38.8936 19.1618C38.933 19.2704 38.9457 19.3869 38.9305 19.5014C38.9153 19.6159 38.8727 19.7251 38.8063 19.8197C38.7399 19.9142 38.6517 19.9913 38.5491 20.0445C38.4466 20.0977 38.3327 20.1253 38.2171 20.125H19.6453C19.6428 20.6096 19.5825 21.0922 19.4656 21.5625H42.2268C42.465 21.5625 42.6936 21.4678 42.862 21.2994C43.0305 21.1309 43.1252 20.9023 43.1252 20.6641V3.77344C43.1252 3.53516 43.0305 3.30664 42.862 3.13815C42.6936 2.96966 42.465 2.875 42.2268 2.875H9.52363Z" fill="#1777BD"/>
<path d="M16.6943 28.639L17.4947 30.2754C18.0118 31.3325 18.9089 32.1555 20.0065 32.58C21.1041 33.0045 22.3215 32.9992 23.4154 32.5651L22.2616 30.2062L16.6943 28.639Z" fill="#1777BD"/>
<path d="M17.4635 22.6167C18.1132 21.608 18.3495 20.3878 18.1234 19.2095C17.8972 18.0311 17.226 16.9852 16.249 16.2887L15.9487 16.0741L10.6238 22.7305C10.5565 22.8146 10.4711 22.8825 10.3739 22.9292C10.2768 22.9758 10.1704 23 10.0626 23H8.75086C8.32211 22.9995 7.91106 22.829 7.60789 22.5258C7.30472 22.2226 7.13418 21.8116 7.13368 21.3828V7.1875H6.50477C6.25568 7.18808 6.01443 7.27464 5.8218 7.43257C5.62918 7.59049 5.49699 7.81008 5.44758 8.05422L2.89062 20.839L5.0157 30.7559C5.02617 30.8054 5.03141 30.8557 5.03133 30.9062V43.125H12.9376V30.1875C12.9376 30.0547 12.9744 29.9244 13.0439 29.8112L17.4552 22.6292C17.4582 22.6251 17.4608 22.6209 17.4635 22.6167Z" fill="#1777BD"/>
</svg>
