<svg width="42" height="42" viewBox="0 0 42 42" fill="none" xmlns="http://www.w3.org/2000/svg">
<g clip-path="url(#clip0)">
<path d="M17.1816 12.3575C17.1816 15.4959 23.4244 17.1385 29.5908 17.1385C35.7572 17.1385 41.9999 15.4959 41.9999 12.3575C41.9998 6.08047 17.1816 6.08047 17.1816 12.3575Z" fill="#1777BD"/>
<path d="M41.5394 16.9882C41.2551 16.8164 40.898 16.8042 40.6025 16.9593C38.0316 18.3077 34.1211 19.051 29.5908 19.051C25.0604 19.051 21.1499 18.3077 18.579 16.9593C18.2835 16.8043 17.9265 16.8164 17.6421 16.9882C17.356 17.1609 17.1816 17.4719 17.1816 17.8062V18.0948C17.1816 21.2332 23.4244 22.8758 29.5908 22.8758C35.7572 22.8758 41.9999 21.2332 41.9999 18.0948V17.8062C41.9998 17.4719 41.8255 17.1609 41.5394 16.9882Z" fill="#1777BD"/>
<path d="M5.72754 31.4817C5.72754 34.6202 11.9703 36.2627 18.1367 36.2627C24.3031 36.2627 30.5458 34.6201 30.5458 31.4817C30.5457 25.2047 5.72754 25.2047 5.72754 31.4817Z" fill="#1777BD"/>
<path d="M30.0853 36.1125C29.8 35.9416 29.4439 35.9285 29.1484 36.0836C26.5775 37.432 22.667 38.1753 18.1367 38.1753C13.6063 38.1753 9.69583 37.432 7.1249 36.0836C6.82941 35.9286 6.47235 35.9417 6.18805 36.1125C5.90186 36.2852 5.72754 36.5962 5.72754 36.9305V37.219C5.72754 40.3576 11.9703 42.0001 18.1367 42.0001C24.3031 42.0001 30.5458 40.3575 30.5458 37.219V36.9305C30.5457 36.5962 30.3714 36.2852 30.0853 36.1125Z" fill="#1777BD"/>
<path d="M12.4091 9.48873C13.6983 9.48873 14.9876 9.41589 16.2413 9.27119C16.4454 9.24783 16.6366 9.15915 16.7866 9.01811C18.2324 7.65475 20.7027 6.64908 23.9299 6.11027C24.2711 6.05326 24.5554 5.81612 24.6719 5.4893C24.7707 5.21386 24.8183 4.95801 24.8183 4.70771C24.8182 -1.56938 0 -1.56938 0 4.70762C0 7.84617 6.24273 9.48873 12.4091 9.48873Z" fill="#1777BD"/>
<path d="M12.4091 15.2261C13.1996 15.2261 13.9705 15.199 14.7172 15.1495C15.0184 15.1289 15.2915 14.9684 15.4555 14.7143C15.6186 14.4613 15.6531 14.1447 15.5488 13.8618C15.3632 13.3622 15.2729 12.8701 15.2775 12.3061C15.2775 12.0446 15.1703 11.7944 14.981 11.6142C14.7928 11.4339 14.5271 11.3247 14.2772 11.3508C13.6536 11.3807 13.0299 11.4012 12.4091 11.4012C7.87876 11.4012 3.96829 10.6579 1.39737 9.30948C1.10187 9.15449 0.744814 9.16666 0.460509 9.33839C0.174324 9.51128 0 9.82225 0 10.1566V10.4451C0 13.5836 6.24273 15.2261 12.4091 15.2261Z" fill="#1777BD"/>
<path d="M12.4091 20.9633C13.1996 20.9633 13.9705 20.9362 14.7172 20.8867C15.0184 20.8662 15.2915 20.7056 15.4555 20.4516C15.6186 20.1985 15.6531 19.882 15.5488 19.599C15.3632 19.0994 15.2729 18.6073 15.2729 18.0433C15.2729 17.7819 15.1656 17.5316 14.9764 17.3514C14.7881 17.1712 14.5271 17.0684 14.2726 17.088C13.6508 17.1179 13.029 17.1384 12.4091 17.1384C7.87876 17.1384 3.96829 16.3951 1.39737 15.0467C1.10187 14.8917 0.744814 14.9039 0.460509 15.0756C0.174324 15.2485 0 15.5595 0 15.8937V16.1822C0 19.3208 6.24273 20.9633 12.4091 20.9633Z" fill="#1777BD"/>
<path d="M41.5398 28.4627C41.2536 28.2881 40.8984 28.2787 40.6029 28.4338C38.8066 29.376 36.2794 30.0343 33.2956 30.3359C32.7922 30.3873 32.4334 30.9756 32.4548 31.4817C32.4548 31.9664 32.3765 32.4295 32.2161 32.8955C32.1098 33.2046 32.1686 33.5473 32.3718 33.8032C32.5546 34.032 32.8296 34.1636 33.1185 34.1636C33.1521 34.1636 33.1865 34.1617 33.2211 34.158C38.7181 33.564 42.0003 31.8487 42.0003 29.5693V29.2807C42.0002 28.9464 41.8259 28.6355 41.5398 28.4627Z" fill="#1777BD"/>
<path d="M18.1361 24.7881L18.7691 24.7993C18.7747 24.7993 18.7803 24.7993 18.7859 24.7993C19.2315 24.7993 19.6183 24.4902 19.7171 24.0542C19.8169 23.6115 19.5932 23.1605 19.1811 22.9728L18.977 22.8812C18.8408 22.8214 18.7038 22.7617 18.577 22.6954C18.2797 22.5394 17.9273 22.5534 17.6412 22.7261C17.3559 22.8989 17.1816 23.2089 17.1816 23.5432V23.8317C17.1816 24.3605 17.6085 24.7881 18.1361 24.7881Z" fill="#1777BD"/>
<path d="M41.5395 22.7255C41.2552 22.5537 40.8982 22.5415 40.6027 22.6966C38.0318 24.045 34.1213 24.7883 29.5909 24.7883L28.9607 24.7761C28.5758 24.7434 28.1152 25.0824 28.0173 25.5241C27.9186 25.9658 28.1423 26.4158 28.5534 26.6026C29.5872 27.0732 30.4318 27.6326 31.0628 28.2647C31.2427 28.4441 31.4851 28.5439 31.7378 28.5439C31.7573 28.5439 31.7778 28.543 31.7983 28.5421C36.5039 28.2433 42 26.8304 42 23.832V23.5435C42 23.2092 41.8256 22.8982 41.5395 22.7255Z" fill="#1777BD"/>
<path d="M7.98311 26.4037C8.1024 26.4037 8.22177 26.3814 8.33453 26.3365C10.0162 25.6707 12.0669 25.2122 14.4309 24.9741C14.9343 24.9238 15.2942 24.2869 15.2727 23.7807C15.2727 23.5192 15.1655 23.269 14.9762 23.0888C14.7879 22.9086 14.5269 22.8124 14.2724 22.8254C13.6506 22.8553 13.0288 22.8758 12.4089 22.8758C7.87858 22.8758 3.96811 22.1325 1.39719 20.7841C1.1017 20.6291 0.744635 20.6413 0.46033 20.813C0.174324 20.9858 0 21.2967 0 21.631V21.9195C0 24.0327 2.93451 25.7061 7.85075 26.3943C7.8946 26.4009 7.93935 26.4037 7.98311 26.4037Z" fill="#1777BD"/>
</g>
<defs>
<clipPath id="clip0">
<rect width="42" height="42" fill="white"/>
</clipPath>
</defs>
</svg>
