<svg width="64" height="35" viewBox="0 0 64 35" fill="none" xmlns="http://www.w3.org/2000/svg">
<g clip-path="url(#clip0)">
<path fill-rule="evenodd" clip-rule="evenodd" d="M38.9593 6.60762C39.0277 6.58611 39.1177 6.62914 39.2078 6.74745C39.2078 6.74745 39.2078 6.74745 43.2769 10.7127C43.5146 10.9493 43.5146 11.3079 43.2769 11.4835C43.2769 11.4835 43.2769 11.4835 39.2078 15.5097C39.1177 15.6281 39.0277 15.6567 38.9593 15.6209C38.8909 15.585 38.8477 15.4811 38.8477 15.3305V6.86576C38.8477 6.71877 38.8909 6.62914 38.9593 6.60762Z" fill="#ED1C24"/>
<path fill-rule="evenodd" clip-rule="evenodd" d="M31.9989 0H32.2869L32.5642 0.114728C32.5642 0.114728 32.5642 0.114728 36.7522 4.25925C36.9323 4.49588 36.8711 4.67514 36.5722 4.67514C36.5722 4.67514 36.5722 4.67514 34.8365 4.67514C34.5376 4.67514 34.2999 4.91177 34.2999 5.20934C34.2999 5.20934 34.2999 5.20934 34.2999 8.28547C34.2999 8.58304 34.0587 8.81967 33.6986 8.81967C33.6986 8.81967 33.6986 8.81967 30.6485 8.81967C30.3496 8.81967 30.1083 8.58304 30.1083 8.28547C30.1083 8.28547 30.1083 8.28547 30.1083 5.20934C30.1083 4.91177 29.8707 4.67514 29.5682 4.67514H27.7136C27.4147 4.67514 27.3535 4.49588 27.5336 4.25925C27.5336 4.25925 27.5336 4.25925 31.7252 0.114728L31.9989 0Z" fill="#ED1C24"/>
<path fill-rule="evenodd" clip-rule="evenodd" d="M25.4376 6.5181C25.5132 6.55395 25.56 6.65793 25.56 6.8085V15.4489C25.56 15.5995 25.5132 15.6891 25.4376 15.7178C25.3656 15.7465 25.2612 15.7178 25.1387 15.6282C25.1387 15.6282 25.1387 15.6282 21.0083 11.4836C20.7707 11.308 20.7707 10.9494 21.0083 10.7128C21.0083 10.7128 21.0083 10.7128 25.1387 6.62924C25.2612 6.51093 25.3656 6.48225 25.4376 6.5181Z" fill="#ED1C24"/>
<path fill-rule="evenodd" clip-rule="evenodd" d="M30.6488 13.3191C30.6488 13.3191 30.6488 13.3191 33.6989 13.3191C34.059 13.3191 34.3003 13.5557 34.3003 13.8533C34.3003 13.8533 34.3003 13.8533 34.3003 17.1087C34.3003 17.4636 34.538 17.7002 34.8368 17.7002H36.4537C36.7526 17.7002 36.8714 17.8759 36.6338 18.0552C36.6338 18.0552 36.6338 18.0552 32.5646 22.1388C32.4422 22.2571 32.2945 22.318 32.1433 22.318C31.9956 22.318 31.8444 22.2571 31.7255 22.1388C31.7255 22.1388 31.7255 22.1388 27.6564 18.0552C27.4151 17.8759 27.5339 17.7002 27.8328 17.7002C27.8328 17.7002 27.8328 17.7002 29.5685 17.7002C29.871 17.7002 30.1087 17.4636 30.1087 17.1087C30.1087 17.1087 30.1087 17.1087 30.1087 13.8533C30.1087 13.5557 30.35 13.3191 30.6488 13.3191Z" fill="#ED1C24"/>
</g>
<path fill-rule="evenodd" clip-rule="evenodd" d="M0 27.5991C0 27.5991 0 27.5991 1.31438 27.5991C1.79332 27.5991 2.03458 27.8357 2.03458 28.3699C2.03458 28.3699 2.03458 28.3699 2.03458 30.2629C2.03458 30.2629 2.03458 30.2629 4.60932 30.2629C4.60932 30.2629 4.60932 30.2629 4.60932 28.3699C4.60932 27.8357 4.84699 27.5991 5.38715 27.5991C5.38715 27.5991 5.38715 27.5991 6.64391 27.5991C6.64391 27.5991 6.64391 27.5991 6.64391 28.8432C6.64391 28.8432 6.64391 28.8432 6.10736 28.8432L6.04614 28.9041C6.04614 28.9041 6.04614 28.9041 6.04614 34.2318C6.04614 34.2318 6.04614 34.2318 4.60932 34.2318C4.60932 34.2318 4.60932 34.2318 4.60932 31.568C4.60932 31.568 4.60932 31.568 2.03458 31.568C2.03458 31.568 2.03458 31.568 2.03458 34.2318C2.03458 34.2318 2.03458 34.2318 0.597772 34.2318C0.597772 34.2318 0.597772 34.2318 0.597772 28.9041C0.597772 28.9041 0.597772 28.8432 0.536554 28.8432C0.536554 28.8432 0.536554 28.8432 0 28.8432C0 28.8432 0 28.8432 0 27.5991Z" fill="#ED1C24"/>
<path fill-rule="evenodd" clip-rule="evenodd" d="M10.4138 27.4807L10.4462 27.4843V28.8503L10.4138 28.8431C9.33707 28.8431 8.49803 29.7322 8.49803 30.858C8.49803 32.0411 9.33707 32.9876 10.4138 32.9876L10.4462 32.9805V34.3464L10.4138 34.35C8.49803 34.35 6.94238 32.812 6.94238 30.858C6.94238 28.9614 8.49803 27.4807 10.4138 27.4807Z" fill="#ED1C24"/>
<path fill-rule="evenodd" clip-rule="evenodd" d="M10.4463 27.4844L11.1125 27.5489C12.6933 27.8572 13.8853 29.1981 13.8853 30.8581C13.8853 32.5646 12.6933 33.9593 11.1125 34.2784L10.4463 34.3465V32.9805L11.1773 32.8228C11.8831 32.5001 12.3908 31.7436 12.3908 30.8581C12.3908 30.012 11.8831 29.3021 11.1773 29.0009L10.4463 28.8503V27.4844Z" fill="#ED1C24"/>
<path fill-rule="evenodd" clip-rule="evenodd" d="M14.1846 27.5991C14.1846 27.5991 14.1846 27.5991 16.1903 27.5991H17.1482V28.8432H17.0582C16.9394 28.8432 16.6981 28.8432 16.2192 28.8432C16.2192 28.8432 16.2192 28.8432 16.2192 30.2056C16.2192 30.2056 16.2192 30.2056 16.6261 30.2056H17.1482V31.3887H16.8421C16.6909 31.3887 16.4892 31.3887 16.2192 31.3887C16.2192 31.3887 16.2192 31.3887 16.2192 32.8694C16.2192 32.9304 16.2192 32.9304 16.2804 32.9304C16.2804 32.9304 16.2804 32.9304 16.7089 32.9304H17.1482V34.2318H17.0222C16.8061 34.2318 16.3704 34.2318 15.5026 34.2318C15.0236 34.2318 14.7859 33.9952 14.7859 33.461V28.8432C14.7859 28.8432 14.7859 28.8432 14.1846 28.8432C14.1846 28.8432 14.1846 28.8432 14.1846 27.5991Z" fill="#ED1C24"/>
<path fill-rule="evenodd" clip-rule="evenodd" d="M17.1484 27.5991H17.1772C18.4952 27.5991 19.273 28.309 19.273 29.3774C19.273 30.0263 18.9742 30.4422 18.6753 30.7398C19.2154 30.9764 19.5719 31.568 19.5719 32.2169C19.5719 33.461 18.6141 34.2318 17.2385 34.2318C17.2385 34.2318 17.2385 34.2318 17.2133 34.2318H17.1484V32.9304H17.2961C17.775 32.9304 18.0775 32.6328 18.0775 32.1595C18.0775 31.6863 17.775 31.3887 17.2961 31.3887C17.2961 31.3887 17.2961 31.3887 17.1628 31.3887H17.1484V30.2056H17.1772C17.5986 30.2056 17.8362 29.908 17.8362 29.4957C17.8362 29.0798 17.5986 28.8432 17.1772 28.8432C17.1772 28.8432 17.1772 28.8432 17.1628 28.8432H17.1484V27.5991Z" fill="#ED1C24"/>
<path fill-rule="evenodd" clip-rule="evenodd" d="M22.3263 27.5991C22.3263 27.5991 22.3263 27.5991 22.9313 27.5991H23.0429V29.4957C22.9853 29.614 22.9241 29.7897 22.9241 29.969C22.9241 29.969 22.9241 29.969 22.4452 31.3313C22.4452 31.3313 22.4452 31.3313 22.9529 31.3313H23.0429V32.5718H22.7188C22.5352 32.5718 22.3263 32.5718 22.0887 32.5718C22.0887 32.5718 22.0887 32.5718 21.6673 33.6402C21.5485 34.0525 21.3108 34.2318 20.8319 34.2318C20.8319 34.2318 20.8319 34.2318 19.9316 34.2318C19.9316 34.2318 19.9316 34.2318 19.9316 32.9304C19.9316 32.9304 19.9316 32.9304 20.2305 32.9304C20.353 32.9304 20.353 32.9304 20.4106 32.8694C20.4106 32.8694 20.4106 32.8694 22.3263 27.5991Z" fill="#ED1C24"/>
<path fill-rule="evenodd" clip-rule="evenodd" d="M23.043 27.5991H23.7632C23.7632 27.5991 23.7632 27.5991 25.6789 32.8694C25.7365 32.9304 25.7365 32.9304 25.8554 32.9304C25.8554 32.9304 25.8554 32.9304 26.0966 32.9304C26.0966 32.9304 26.0966 32.9304 26.0966 34.2318C26.0966 34.2318 26.0966 34.2318 25.2576 34.2318C24.7787 34.2318 24.541 34.0525 24.4186 33.5793C24.4186 33.5793 24.4186 33.5793 24.0008 32.5718C24.0008 32.5718 24.0008 32.5718 23.1942 32.5718H23.043V31.3313H23.6407C23.6407 31.3313 23.6407 31.3313 23.1654 29.969C23.1654 29.7897 23.1042 29.614 23.043 29.4957V27.5991Z" fill="#ED1C24"/>
<path fill-rule="evenodd" clip-rule="evenodd" d="M28.8652 27.4951C28.8652 27.4951 28.8652 27.4951 34.0723 27.4951C34.5513 27.4951 34.8502 27.7317 34.8502 28.2659C34.8502 28.2659 34.8502 28.2659 34.8502 32.7654C34.8502 32.8228 34.8502 32.8228 34.9114 32.8228C34.9114 32.8228 34.9114 32.8228 35.3903 32.8228C35.3903 32.8228 35.3903 32.8228 35.3903 34.1278C35.3903 34.1278 35.3903 34.1278 34.1335 34.1278C33.5934 34.1278 33.3557 33.8912 33.3557 33.357C33.3557 33.357 33.3557 33.357 33.3557 28.8001C33.3557 28.8001 33.3557 28.7392 33.2945 28.7392C33.2945 28.7392 33.2945 28.7392 30.8998 28.7392C30.8998 28.7392 30.8998 28.7392 30.8998 34.1278C30.8998 34.1278 30.8998 34.1278 29.463 34.1278C29.463 34.1278 29.463 34.1278 29.463 28.7392C29.463 28.7392 29.463 28.7392 28.8652 28.7392C28.8652 28.7392 28.8652 28.7392 28.8652 27.4951Z" fill="#ED1C24"/>
<path fill-rule="evenodd" clip-rule="evenodd" d="M39.1599 27.377L39.1887 27.3805V28.7465L39.1599 28.7393C38.0796 28.7393 37.2441 29.6285 37.2441 30.7542C37.2441 31.9374 38.0796 32.8839 39.1599 32.8839L39.1887 32.8767V34.2427L39.1599 34.2463C37.2441 34.2463 35.7461 32.7046 35.7461 30.7542C35.7461 28.8577 37.2441 27.377 39.1599 27.377Z" fill="#ED1C24"/>
<path fill-rule="evenodd" clip-rule="evenodd" d="M39.1885 27.3804L39.8763 27.4449C41.4859 27.7532 42.6311 29.0941 42.6311 30.7541C42.6311 32.4606 41.4859 33.8553 39.8763 34.1744L39.1885 34.2425V32.8765L39.9483 32.7188C40.6649 32.3961 41.1366 31.6396 41.1366 30.7541C41.1366 29.908 40.6649 29.1981 39.9483 28.8969L39.1885 28.7463V27.3804Z" fill="#ED1C24"/>
<path fill-rule="evenodd" clip-rule="evenodd" d="M42.9307 27.4951C42.9307 27.4951 42.9307 27.4951 44.2486 27.4951C44.7276 27.4951 44.9652 27.7317 44.9652 28.2659C44.9652 28.2659 44.9652 28.2659 44.9652 32.7654C44.9652 32.8228 44.9652 32.8228 45.0265 32.8228C45.0265 32.8228 45.0265 32.8228 46.7622 32.8228C46.7622 32.8228 46.7622 32.8228 46.7622 27.4951C46.7622 27.4951 46.7622 27.4951 48.199 27.4951C48.199 27.4951 48.199 27.4951 48.199 32.8228C48.199 32.8228 48.199 32.8228 49.9347 32.8228C49.9959 32.8228 49.9959 32.8228 49.9959 32.7654C49.9959 32.7654 49.9959 32.7654 49.9959 28.2659C49.9959 27.7317 50.2336 27.4951 50.7125 27.4951C50.7125 27.4951 50.7125 27.4951 52.0305 27.4951C52.0305 27.4951 52.0305 27.4951 52.0305 28.7392C52.0305 28.7392 52.0305 28.7392 51.4903 28.7392C51.4291 28.7392 51.4291 28.8001 51.4291 28.8001C51.4291 28.8001 51.4291 28.8001 51.4291 33.357C51.4291 33.8912 51.1914 34.1278 50.7125 34.1278C50.7125 34.1278 50.7125 34.1278 44.3063 34.1278C43.7697 34.1278 43.5284 33.8912 43.5284 33.357C43.5284 33.357 43.5284 33.357 43.5284 28.8001C43.5284 28.8001 43.5284 28.7392 43.4708 28.7392C43.4708 28.7392 43.4708 28.7392 42.9307 28.7392C42.9307 28.7392 42.9307 28.7392 42.9307 27.4951Z" fill="#ED1C24"/>
<path fill-rule="evenodd" clip-rule="evenodd" d="M53.1648 27.4951C53.1648 27.4951 53.1648 27.4951 57.6553 27.4951C58.1955 27.4951 58.3755 27.7317 58.3755 28.205C58.3755 28.205 58.3755 28.205 58.3755 29.3308H57.0576C57.0576 29.3308 57.0576 29.3308 57.0576 28.8001C57.0576 28.7392 57.0576 28.7392 56.9963 28.7392C56.9963 28.7392 56.9963 28.7392 56.1609 28.7392C56.1609 28.7392 56.1609 28.7392 56.1609 34.1278C56.1609 34.1278 56.1609 34.1278 54.7205 34.1278C54.7205 34.1278 54.7205 34.1278 54.7205 28.7392C54.7205 28.7392 54.7205 28.7392 53.8851 28.7392C53.8238 28.7392 53.8238 28.7392 53.8238 28.8001C53.8238 28.8001 53.8238 28.8001 53.8238 29.3308C53.8238 29.3308 53.8238 29.3308 52.5059 29.3308C52.5059 29.3308 52.5059 29.3308 52.5059 28.205C52.5059 27.7317 52.6859 27.4951 53.1648 27.4951Z" fill="#ED1C24"/>
<path fill-rule="evenodd" clip-rule="evenodd" d="M60.2296 27.4951C60.2296 27.4951 60.2296 27.4951 60.8346 27.4951H60.9463V29.3917C60.885 29.51 60.8274 29.6857 60.8274 29.865C60.8274 29.865 60.8274 29.865 60.3485 31.2273C60.3485 31.2273 60.3485 31.2273 60.8526 31.2273H60.9463V32.4678H60.6222C60.4385 32.4678 60.2296 32.4678 59.9884 32.4678C59.9884 32.4678 59.9884 32.4678 59.5707 33.4753C59.4518 33.9485 59.2106 34.1278 58.7316 34.1278C58.7316 34.1278 58.7316 34.1278 57.835 34.1278C57.835 34.1278 57.835 34.1278 57.835 32.8228C57.835 32.8228 57.835 32.8228 58.1338 32.8228C58.2563 32.8228 58.2563 32.8228 58.3139 32.7654C58.3139 32.7654 58.3139 32.7654 60.2296 27.4951Z" fill="#ED1C24"/>
<path fill-rule="evenodd" clip-rule="evenodd" d="M60.9463 27.4951H61.6629C61.6629 27.4951 61.6629 27.4951 63.5822 32.7654C63.6399 32.8228 63.6399 32.8228 63.7623 32.8228H64C64 32.8228 64 32.8228 64 34.1278C64 34.1278 64 34.1278 63.1609 34.1278C62.682 34.1278 62.4443 33.9485 62.3219 33.4753C62.3219 33.4753 62.3219 33.4753 61.9042 32.4678C61.9042 32.4678 61.9042 32.4678 61.0975 32.4678H60.9463V31.2273H61.5441C61.5441 31.2273 61.5441 31.2273 61.0651 29.865C61.0651 29.6857 61.0075 29.51 60.9463 29.3917V27.4951Z" fill="#ED1C24"/>
<defs>
<clipPath id="clip0">
<rect width="22.6156" height="22.3181" fill="white" transform="translate(20.8301)"/>
</clipPath>
</defs>
</svg>
