<svg width="42" height="42" viewBox="0 0 42 42" fill="none" xmlns="http://www.w3.org/2000/svg">
<path d="M39.659 40.4451L36.3319 28.2725C36.2571 27.9987 36.09 27.7592 35.8588 27.5946C30.585 23.8388 32.3138 25.0699 27.8053 21.8594C29.5166 20.1008 30.5031 17.7233 30.5031 15.2347C30.5031 10.2734 30.5361 10.0019 30.3906 9.09677C30.3369 3.90321 26.4006 0 21.1913 0H20.8087C15.5995 0 11.6632 3.90321 11.6095 9.09686C11.4641 10.002 11.497 10.2733 11.497 15.2348C11.497 17.7233 12.4835 20.1007 14.195 21.8594C8.48951 25.9223 11.8233 23.5482 6.14129 27.5947C5.91012 27.7593 5.74294 27.9988 5.66813 28.2726L2.34103 40.4452C2.12717 41.2277 2.71722 42 3.52794 42H19.7696V28.9967L21.0001 28.1882L22.2306 28.9967V42H38.4723C39.2834 42 39.8728 41.227 39.659 40.4451ZM20.1965 3.98688H21.8036C22.4831 3.98688 23.0341 4.5378 23.0341 5.21735C23.0341 5.8969 22.4831 6.44782 21.8036 6.44782H20.1965C19.517 6.44782 18.9661 5.8969 18.9661 5.21735C18.9661 4.5378 19.517 3.98688 20.1965 3.98688ZM19.7697 26.0521L17.0631 27.8304L13.4527 25.4092L16.2173 23.4404C17.3473 24.0996 18.568 24.4939 19.7697 24.6486V26.0521ZM21.0001 22.2666C17.0917 22.2666 13.958 19.0947 13.958 15.2348C13.9579 14.3536 13.9569 13.6243 13.9561 13.0137L14.6176 13.9794C14.8469 14.3144 15.2267 14.5145 15.6327 14.5145H26.3674C26.7733 14.5145 27.1531 14.3144 27.3825 13.9794L28.044 13.0137C28.0432 13.6242 28.0422 14.3536 28.0422 15.2348C28.0422 19.0601 24.9433 22.2666 21.0001 22.2666ZM22.2305 26.0521V24.6485C23.4962 24.4858 24.7072 24.0679 25.7829 23.4403L28.5475 25.4091L24.937 27.8303L22.2305 26.0521ZM31.4531 36.7576H27.1384C26.4589 36.7576 25.9079 36.2067 25.9079 35.5272C25.9079 34.8476 26.4589 34.2967 27.1384 34.2967H31.4531C32.1326 34.2967 32.6836 34.8476 32.6836 35.5272C32.6836 36.2067 32.1326 36.7576 31.4531 36.7576Z" fill="#1777BD"/>
</svg>
