<svg width="16" height="16" viewBox="0 0 16 16" fill="none" xmlns="http://www.w3.org/2000/svg">
<g clip-path="url(#clip0)">
<path d="M5.97437 11.6185H4.72498V14.1172C4.72498 15.1505 5.56567 15.9911 6.599 15.9911H14.1261C15.1593 15.9911 16 15.1505 16 14.1172V1.8739C16 0.840698 15.1593 0 14.1261 0H6.599C5.56567 0 4.72498 0.840698 4.72498 1.8739V4.37256H5.97437V1.8739C5.97437 1.52954 6.25452 1.24927 6.599 1.24927H14.1261C14.4705 1.24927 14.7507 1.52954 14.7507 1.8739V14.1172C14.7507 14.4615 14.4705 14.7418 14.1261 14.7418H6.599C6.25452 14.7418 5.97437 14.4615 5.97437 14.1172V11.6185ZM2.9447 5.05078L3.82812 5.9342L2.39148 7.37097H10.4718V8.62024H2.39148L3.82812 10.0569L2.9447 10.9403L0 7.99561L2.9447 5.05078Z" fill="#ED4242"/>
</g>
<defs>
<clipPath id="clip0">
<rect width="16" height="16" fill="white" transform="matrix(-1 0 0 1 16 0)"/>
</clipPath>
</defs>
</svg>
