<svg width="17" height="17" viewBox="0 0 17 17" fill="none" xmlns="http://www.w3.org/2000/svg">
<g clip-path="url(#clip0)">
<path d="M8.49975 3.54199C4.13577 3.54199 0.247079 8.0781 0.0834562 8.27147C-0.0284698 8.40322 -0.0284698 8.59659 0.0834562 8.72903C0.181205 8.84448 1.61061 10.5041 3.67183 11.8258L5.89172 9.60592C5.74722 9.26592 5.66647 8.89262 5.66647 8.50024C5.66647 6.93769 6.9372 5.66696 8.49975 5.66696C8.89217 5.66696 9.26544 5.74771 9.60543 5.89221L11.4308 4.06686C10.5411 3.74881 9.56436 3.54199 8.49975 3.54199Z" fill="#ABABAB"/>
<path d="M16.9372 8.29823C16.8465 8.16718 15.3427 6.05071 12.8147 4.68648L14.7718 2.72939C14.9099 2.59126 14.9099 2.36671 14.7718 2.22859C14.6337 2.09047 14.4091 2.09047 14.271 2.22859L2.22957 14.2701C2.09145 14.4082 2.09145 14.6328 2.22957 14.7709C2.29826 14.8403 2.38894 14.875 2.47962 14.875C2.57029 14.875 2.66094 14.8403 2.73036 14.7716L4.95095 12.551C6.04531 13.0851 7.25229 13.4584 8.50034 13.4584C12.8643 13.4584 16.753 8.92227 16.9166 8.7289C17.0193 8.60635 17.0285 8.42998 16.9372 8.29823ZM8.50034 11.3334C7.84655 11.3334 7.25229 11.1018 6.77205 10.7292L10.7294 6.77184C11.102 7.25208 11.3336 7.84637 11.3336 8.50013C11.3336 10.0627 10.0629 11.3334 8.50034 11.3334Z" fill="#ABABAB"/>
</g>
<defs>
<clipPath id="clip0">
<rect width="17" height="17" fill="white"/>
</clipPath>
</defs>
</svg>
