<svg width="17" height="18" viewBox="0 0 17 18" fill="none" xmlns="http://www.w3.org/2000/svg">
<path d="M15.5917 2.83825C13.743 0.975535 10.7339 0.975535 8.88456 2.83783L8.50003 3.22455L8.11591 2.83801C6.26639 0.975465 3.25769 0.975676 1.40818 2.83801C0.500072 3.75256 0 4.96563 0 6.2534C0 7.5416 0.500072 8.75445 1.40831 9.6694L8.08941 16.3854C8.20433 16.5012 8.35228 16.5589 8.5 16.5589C8.64772 16.5589 8.79547 16.501 8.91059 16.3852L15.5917 9.6694C16.4997 8.75467 17 7.54163 17 6.25361C17 4.96563 16.4997 3.75277 15.5917 2.83825ZM14.7697 8.75361L8.5 15.0564L2.23049 8.75382C1.56141 8.08016 1.19299 7.19215 1.19299 6.25361C1.19299 5.31508 1.56141 4.42707 2.23049 3.75341C2.92838 3.05025 3.84499 2.69889 4.76179 2.69889C5.6788 2.69889 6.5958 3.05067 7.2937 3.75383L8.08901 4.55363C8.31924 4.78542 8.68053 4.78542 8.91079 4.55363L9.7063 3.75341C11.1023 2.3473 13.3735 2.3473 14.7695 3.75341C15.4384 4.42711 15.807 5.31508 15.807 6.25361C15.807 7.19215 15.4384 8.07995 14.7697 8.75361Z" fill="#4E4E4E"/>
</svg>
