<svg width="12" height="12" viewBox="0 0 12 12" fill="none" xmlns="http://www.w3.org/2000/svg">
<path d="M6 0C2.6916 0 0 2.69164 0 6.00004C0 9.30844 2.6916 12 6 12C9.3084 12 12 9.30844 12 6.00004C12 2.69164 9.3084 0 6 0ZM6 10.9091C3.29309 10.9091 1.09091 8.70691 1.09091 6.00004C1.09091 3.29316 3.29309 1.09091 6 1.09091C8.70691 1.09091 10.9091 3.29316 10.9091 6.00004C10.9091 8.70691 8.70687 10.9091 6 10.9091Z" fill="#888888"/>
<path d="M5.99959 2.54541C5.59864 2.54541 5.27246 2.87181 5.27246 3.27301C5.27246 3.67385 5.59864 3.99996 5.99959 3.99996C6.40054 3.99996 6.72672 3.67385 6.72672 3.27301C6.72672 2.87181 6.40054 2.54541 5.99959 2.54541Z" fill="#888888"/>
<path d="M5.99955 5.09082C5.69832 5.09082 5.4541 5.33504 5.4541 5.63627V8.909C5.4541 9.21024 5.69832 9.45446 5.99955 9.45446C6.30079 9.45446 6.54501 9.21024 6.54501 8.909V5.63627C6.54501 5.33504 6.30079 5.09082 5.99955 5.09082Z" fill="#888888"/>
</svg>
