<svg width="62" height="45" viewBox="0 0 62 45" fill="none" xmlns="http://www.w3.org/2000/svg">
<path d="M0.0085442 34.0002H2.29006V38.5035H2.33278C2.56349 38.1104 2.80276 37.7515 3.02492 37.3841L5.34062 34.0002H8.16901L4.79374 38.3411L8.34845 44.1944H5.65678L3.16165 39.7937L2.28151 40.8704V44.1944H0V34.0002H0.0085442Z" fill="#231F20"/>
<path d="M12.5254 34H14.8411V42.2545H18.8914V44.1942H12.5254V34Z" fill="#231F20"/>
<path d="M25.804 34V44.1942H23.4883V34H25.804Z" fill="#231F20"/>
<path d="M31.0352 34H37.2645V35.8884H33.3509V38.2212H37.0081V40.0926H33.3509V44.1942H31.0352V34Z" fill="#231F20"/>
<path d="M48.3045 39.879H44.5532V42.2972H48.7403V44.1856H42.2461V34H48.5352V35.8884H44.5532V38.0076H48.3045V39.879Z" fill="#231F20"/>
<path d="M58.9158 44.1937L57.993 42.348C57.617 41.6387 57.3692 41.1089 57.0872 40.5193H57.053C56.8394 41.1089 56.583 41.6387 56.2669 42.348L55.4209 44.1937H52.7891L55.7371 39.0411L52.8916 34.0081H55.5405L56.4292 35.8709C56.7283 36.4946 56.959 36.9903 57.1983 37.5628H57.2325C57.4717 36.9134 57.6682 36.4605 57.9246 35.8709L58.7876 34.0081H61.4195L58.5484 38.9812L61.5733 44.2022H58.9158V44.1937Z" fill="#231F20"/>
<path d="M25.9118 18.3125C26.8261 17.3811 27.6636 16.5266 28.5095 15.6636C28.6206 15.7661 28.7573 15.8857 28.8855 16.0225C32.0386 19.1756 35.2002 22.3372 38.3448 25.4989C38.6695 25.8236 38.9942 25.9945 39.4642 25.9774C40.3614 25.9432 41.2672 25.9688 42.1644 25.9688C43.3436 25.9603 44.0187 25.2852 44.0272 24.0975C44.0357 22.9268 44.0272 21.7647 44.0272 20.594C44.0272 14.3647 44.0272 8.13545 44.0272 1.9147C44.0272 0.692764 43.3521 0.026255 42.1302 0.01771C41.2074 0.01771 40.2845 -0.0164696 39.3616 0.0348003C39.054 0.0518903 38.6866 0.197155 38.4644 0.402234C37.6526 1.15419 36.8836 1.94888 36.106 2.73502C30.2014 8.63106 24.2968 14.5356 18.3922 20.4573C18.2299 20.6197 18.0675 20.8589 18.059 21.064C18.0248 22.1663 18.0163 23.2772 18.059 24.3795C18.0846 25.1656 18.6742 25.8748 19.4006 25.9176C20.6139 25.9859 21.8359 25.9347 23.0493 25.9347C23.092 25.8663 23.1433 25.8065 23.186 25.7381C22.34 24.9605 21.4855 24.1829 20.6652 23.431C21.571 22.5167 22.4084 21.6707 23.3483 20.7222C23.468 20.8931 23.562 21.0811 23.6987 21.2264C25.1257 22.6705 26.5698 24.0889 27.9883 25.5416C28.2788 25.8407 28.5779 25.9774 29.0051 25.9688C30.3125 25.9432 31.6284 25.9603 32.9358 25.9603C33.1067 25.9603 33.2776 25.9347 33.5681 25.9176C30.9448 23.3028 28.3984 20.7906 25.9118 18.3125ZM33.4656 0.00916512C31.9788 0.00916512 30.509 0.0262552 29.0393 0.000620261C28.5864 -0.00792473 28.2788 0.128795 27.9712 0.444959C25.1599 3.27335 22.3828 6.14447 19.486 8.88741C18.4093 9.9128 17.9735 10.8613 18.0077 12.4336C18.0163 13.4248 18.0334 14.4075 18.0334 15.45C23.2116 10.2802 28.313 5.17034 33.4656 0.00916512ZM23.0578 0.00916512C21.8957 0.00916512 20.7763 -0.00792499 19.6484 0.01771C18.8622 0.0347999 18.1444 0.607314 18.0932 1.41054C18.0163 2.5983 18.0761 3.80314 18.0761 4.99944C19.7338 3.32462 21.3744 1.69253 23.0578 0.00916512Z" fill="#231F20"/>
<path d="M25.912 18.3128C28.484 20.8678 31.0561 23.4142 33.6196 25.9691C33.4743 25.9691 33.235 25.9606 32.936 25.9606C31.1415 25.9435 30.2528 25.9606 30.0478 25.9606C29.6974 25.9606 29.3556 25.9691 29.0053 25.9777C28.578 25.9862 28.279 25.8495 27.9884 25.5504C26.57 24.1063 25.1259 22.6793 23.6988 21.2352C23.5536 21.0899 23.4596 20.9019 23.3485 20.731C22.4085 21.6795 21.5711 22.5255 20.6654 23.4398C21.5882 24.2858 22.5111 25.1317 23.4339 25.9691C22.1009 25.9691 20.7594 25.9691 19.4263 25.9691C19.4178 25.9691 19.4093 25.9691 19.4007 25.9691C18.6829 25.952 18.1702 24.6532 18.0677 24.3883C17.9395 24.055 18.025 22.7306 18.0677 21.0728C18.0762 20.8678 18.2386 20.62 18.4009 20.4661C24.3055 14.553 30.2101 8.63989 36.1233 2.7353C36.9094 1.94916 37.6699 1.15448 38.4817 0.402521C38.7038 0.197441 39.0713 0.0521768 39.3789 0.0350869C40.3018 -0.0161831 41.2246 0.0179965 42.1475 0.0179965C43.3779 0.0179965 44.0445 0.684506 44.0445 1.91498C44.0445 8.14428 44.0445 14.3736 44.0445 20.5943C44.0445 21.765 44.0445 22.9271 44.0445 24.0978C44.0359 25.2941 43.3609 25.9691 42.1816 25.9691C41.2844 25.9691 40.3787 25.9435 39.4814 25.9777C39.0029 25.9948 38.6867 25.8324 38.362 25.4991C35.2175 22.329 32.0558 19.1759 28.9027 16.0228C28.7746 15.8946 28.6378 15.775 28.5268 15.6639C27.6637 16.5355 26.8263 17.39 25.912 18.3128Z" fill="#231F20"/>
<path d="M19.4949 8.88716C22.3831 6.13568 25.1688 3.27311 27.9801 0.444715C28.2877 0.128551 28.6038 -0.00816887 29.0482 0.00037612C30.5179 0.0260111 31.9877 0.00892098 33.4745 0.00892098C28.3219 5.17009 23.2205 10.28 18.0508 15.4583" fill="#231F20"/>
<path d="M23.0572 0.00903083C21.3738 1.69239 19.6904 3.37576 18.0156 5.05912C18.0156 3.35867 18.0156 2.12819 18.0156 1.65821C18.0156 1.64112 18.0156 1.58985 18.0242 1.53004C18.084 0.889165 18.5625 0.461915 18.5967 0.43628C19.0154 0.0773908 19.4939 0.0432105 19.6563 0.0261205C19.7075 0.0261205 19.7503 0.0261207 19.7673 0.0175757C20.28 0.000485711 21.8352 0.000485841 23.0572 0.00903083Z" fill="#231F20"/>
</svg>
