<svg width="217" height="49" viewBox="0 0 217 49" fill="none" xmlns="http://www.w3.org/2000/svg">
<path d="M62.939 35.9385V39H61.9077V31.1797H64.792C65.6478 31.1797 66.3174 31.3981 66.8008 31.835C67.2878 32.2718 67.5312 32.8501 67.5312 33.5698C67.5312 34.3289 67.2931 34.9144 66.8169 35.3262C66.3442 35.7344 65.6657 35.9385 64.7812 35.9385H62.939ZM62.939 35.0952H64.792C65.3434 35.0952 65.766 34.9663 66.0596 34.7085C66.3532 34.4471 66.5 34.0711 66.5 33.5806C66.5 33.1151 66.3532 32.7427 66.0596 32.4634C65.766 32.1841 65.3631 32.0391 64.8511 32.0283H62.939V35.0952ZM71.0278 39.1074C70.2401 39.1074 69.5991 38.8496 69.105 38.334C68.6108 37.8148 68.3638 37.1219 68.3638 36.2554V36.0728C68.3638 35.4963 68.473 34.9824 68.6914 34.5312C68.9134 34.0765 69.2214 33.722 69.6152 33.4678C70.0127 33.21 70.4424 33.0811 70.9043 33.0811C71.6598 33.0811 72.2471 33.3299 72.666 33.8276C73.085 34.3254 73.2944 35.0379 73.2944 35.9653V36.3789H69.3574C69.3717 36.9518 69.5382 37.4155 69.8569 37.77C70.1792 38.1209 70.5874 38.2964 71.0815 38.2964C71.4325 38.2964 71.7297 38.2248 71.9731 38.0815C72.2166 37.9383 72.4297 37.7485 72.6123 37.5122L73.2192 37.9849C72.7323 38.7332 72.0018 39.1074 71.0278 39.1074ZM70.9043 33.8975C70.5033 33.8975 70.1667 34.0443 69.8945 34.3379C69.6224 34.6279 69.4541 35.0361 69.3896 35.5625H72.3008V35.4873C72.2721 34.9824 72.1361 34.5921 71.8926 34.3164C71.6491 34.0371 71.3197 33.8975 70.9043 33.8975ZM77.7954 37.6841L79.772 33.1885H81.0127V39H80.019V34.7729L78.1392 39H77.4517L75.5342 34.6816V39H74.5405V33.1885H75.8296L77.7954 37.6841ZM84.4233 36.5239H83.6982V39H82.6992V33.1885H83.6982V35.6484H84.3481L86.3032 33.1885H87.5063L85.2075 35.9814L87.6997 39H86.4375L84.4233 36.5239ZM88.1724 36.0405C88.1724 35.4712 88.2834 34.9591 88.5054 34.5044C88.731 34.0496 89.0425 33.6987 89.4399 33.4517C89.841 33.2046 90.2975 33.0811 90.8096 33.0811C91.6009 33.0811 92.2401 33.355 92.7271 33.9028C93.2176 34.4507 93.4629 35.1794 93.4629 36.0889V36.1587C93.4629 36.7244 93.3537 37.2329 93.1353 37.6841C92.9204 38.1317 92.6107 38.4808 92.2061 38.7314C91.805 38.9821 91.3431 39.1074 90.8203 39.1074C90.0326 39.1074 89.3934 38.8335 88.9028 38.2856C88.4159 37.7378 88.1724 37.0127 88.1724 36.1104V36.0405ZM89.1714 36.1587C89.1714 36.8032 89.32 37.3206 89.6172 37.7109C89.918 38.1012 90.319 38.2964 90.8203 38.2964C91.3252 38.2964 91.7262 38.0994 92.0234 37.7056C92.3206 37.3081 92.4692 36.7531 92.4692 36.0405C92.4692 35.4032 92.3171 34.8875 92.0127 34.4937C91.7119 34.0962 91.3109 33.8975 90.8096 33.8975C90.319 33.8975 89.9233 34.0926 89.6226 34.4829C89.3218 34.8732 89.1714 35.4318 89.1714 36.1587ZM98.0552 37.6841L100.032 33.1885H101.272V39H100.279V34.7729L98.3989 39H97.7114L95.7939 34.6816V39H94.8003V33.1885H96.0894L98.0552 37.6841ZM107.626 39H106.633V34.0103H103.958V39H102.959V33.1885H107.626V39ZM113.986 33.1885V39H112.987V34.0103H111.01L110.892 36.1855C110.828 37.1846 110.659 37.8989 110.387 38.3286C110.119 38.7583 109.691 38.9821 109.104 39H108.706V38.1245L108.991 38.103C109.313 38.0672 109.544 37.881 109.684 37.5444C109.823 37.2078 109.913 36.5848 109.952 35.6753L110.06 33.1885H113.986ZM117.993 39.1074C117.205 39.1074 116.564 38.8496 116.07 38.334C115.576 37.8148 115.329 37.1219 115.329 36.2554V36.0728C115.329 35.4963 115.438 34.9824 115.656 34.5312C115.878 34.0765 116.186 33.722 116.58 33.4678C116.978 33.21 117.407 33.0811 117.869 33.0811C118.625 33.0811 119.212 33.3299 119.631 33.8276C120.05 34.3254 120.259 35.0379 120.259 35.9653V36.3789H116.322C116.337 36.9518 116.503 37.4155 116.822 37.77C117.144 38.1209 117.552 38.2964 118.046 38.2964C118.397 38.2964 118.694 38.2248 118.938 38.0815C119.181 37.9383 119.395 37.7485 119.577 37.5122L120.184 37.9849C119.697 38.7332 118.967 39.1074 117.993 39.1074ZM117.869 33.8975C117.468 33.8975 117.132 34.0443 116.859 34.3379C116.587 34.6279 116.419 35.0361 116.354 35.5625H119.266V35.4873C119.237 34.9824 119.101 34.5921 118.857 34.3164C118.614 34.0371 118.285 33.8975 117.869 33.8975ZM123.224 36.5239H122.499V39H121.5V33.1885H122.499V35.6484H123.149L125.104 33.1885H126.307L124.008 35.9814L126.5 39H125.238L123.224 36.5239ZM131.673 33.9941H129.723V39H128.729V33.9941H126.817V33.1885H131.673V33.9941ZM133.725 35.1919H135.234C135.893 35.1991 136.414 35.3709 136.797 35.7075C137.18 36.0441 137.372 36.5007 137.372 37.0771C137.372 37.6572 137.175 38.1227 136.781 38.4736C136.387 38.8245 135.857 39 135.191 39H132.731V33.1885H133.725V35.1919ZM139.445 39H138.446V33.1885H139.445V39ZM133.725 36.0029V38.189H135.202C135.574 38.189 135.862 38.0941 136.066 37.9043C136.271 37.7109 136.373 37.4478 136.373 37.1147C136.373 36.7925 136.272 36.5293 136.072 36.3252C135.875 36.1175 135.597 36.0101 135.239 36.0029H133.725ZM143.86 38.189L144.204 37.7646C144.59 37.2633 144.811 36.5114 144.864 35.5088L144.956 33.1885H148.699V38.189H149.446V40.708H148.452V39H144.397V40.708H143.403L143.409 38.189H143.86ZM145.036 38.189H147.706V34.1069H145.917L145.858 35.4927C145.797 36.6493 145.523 37.548 145.036 38.189ZM155.311 33.1885V39H154.312V34.0103H152.335L152.217 36.1855C152.153 37.1846 151.985 37.8989 151.712 38.3286C151.444 38.7583 151.016 38.9821 150.429 39H150.031V38.1245L150.316 38.103C150.638 38.0672 150.869 37.881 151.009 37.5444C151.148 37.2078 151.238 36.5848 151.277 35.6753L151.385 33.1885H155.311ZM161.348 33.1885V39H160.349V36.7388H158.851L157.481 39H156.407L157.868 36.5884C157.495 36.4523 157.209 36.2428 157.008 35.96C156.811 35.6735 156.713 35.3405 156.713 34.9609C156.713 34.431 156.912 34.0049 157.309 33.6826C157.707 33.3568 158.238 33.1921 158.904 33.1885H161.348ZM157.712 34.9717C157.712 35.2546 157.809 35.4837 158.002 35.6592C158.195 35.8311 158.451 35.9188 158.77 35.9224H160.349V33.9941H158.92C158.552 33.9941 158.258 34.0854 158.04 34.2681C157.821 34.4471 157.712 34.6816 157.712 34.9717ZM169.432 33.1885H170.425V39H169.432V34.7622L166.751 39H165.758V33.1885H166.751V37.4316L169.432 33.1885ZM176.769 39H175.775V36.5186H173.105V39H172.106V33.1885H173.105V35.7075H175.775V33.1885H176.769V39ZM178.106 36.0405C178.106 35.4712 178.217 34.9591 178.439 34.5044C178.665 34.0496 178.976 33.6987 179.374 33.4517C179.775 33.2046 180.231 33.0811 180.743 33.0811C181.535 33.0811 182.174 33.355 182.661 33.9028C183.151 34.4507 183.396 35.1794 183.396 36.0889V36.1587C183.396 36.7244 183.287 37.2329 183.069 37.6841C182.854 38.1317 182.544 38.4808 182.14 38.7314C181.739 38.9821 181.277 39.1074 180.754 39.1074C179.966 39.1074 179.327 38.8335 178.836 38.2856C178.349 37.7378 178.106 37.0127 178.106 36.1104V36.0405ZM179.105 36.1587C179.105 36.8032 179.254 37.3206 179.551 37.7109C179.852 38.1012 180.253 38.2964 180.754 38.2964C181.259 38.2964 181.66 38.0994 181.957 37.7056C182.254 37.3081 182.403 36.7531 182.403 36.0405C182.403 35.4032 182.251 34.8875 181.946 34.4937C181.646 34.0962 181.244 33.8975 180.743 33.8975C180.253 33.8975 179.857 34.0926 179.556 34.4829C179.255 34.8732 179.105 35.4318 179.105 36.1587ZM187.989 37.6841L189.965 33.1885H191.206V39H190.212V34.7729L188.333 39H187.645L185.728 34.6816V39H184.734V33.1885H186.023L187.989 37.6841ZM196.395 39C196.337 38.8854 196.291 38.6813 196.255 38.3877C195.793 38.8675 195.242 39.1074 194.601 39.1074C194.028 39.1074 193.557 38.9463 193.188 38.624C192.823 38.2982 192.64 37.8864 192.64 37.3887C192.64 36.7835 192.869 36.3145 193.328 35.9814C193.79 35.6449 194.438 35.4766 195.272 35.4766H196.239V35.02C196.239 34.6727 196.135 34.397 195.927 34.1929C195.72 33.9852 195.413 33.8813 195.009 33.8813C194.654 33.8813 194.357 33.9709 194.117 34.1499C193.877 34.3289 193.757 34.5456 193.757 34.7998H192.758C192.758 34.5098 192.86 34.2305 193.064 33.9619C193.272 33.6898 193.551 33.4749 193.902 33.3174C194.257 33.1598 194.645 33.0811 195.068 33.0811C195.737 33.0811 196.262 33.2493 196.642 33.5859C197.021 33.9189 197.218 34.3791 197.232 34.9663V37.6411C197.232 38.1746 197.3 38.599 197.437 38.9141V39H196.395ZM194.746 38.2427C195.057 38.2427 195.353 38.1621 195.632 38.001C195.911 37.8398 196.113 37.6304 196.239 37.3726V36.1802H195.46C194.243 36.1802 193.634 36.5365 193.634 37.249C193.634 37.5605 193.738 37.804 193.945 37.9795C194.153 38.1549 194.42 38.2427 194.746 38.2427ZM203.699 36.1587C203.699 37.0431 203.497 37.7557 203.092 38.2964C202.688 38.8371 202.14 39.1074 201.449 39.1074C200.743 39.1074 200.188 38.8836 199.784 38.436V41.2344H198.79V33.1885H199.698L199.746 33.833C200.151 33.3317 200.713 33.0811 201.433 33.0811C202.131 33.0811 202.682 33.3442 203.087 33.8706C203.495 34.397 203.699 35.1292 203.699 36.0674V36.1587ZM202.706 36.0459C202.706 35.3906 202.566 34.8732 202.287 34.4937C202.007 34.1141 201.624 33.9243 201.137 33.9243C200.536 33.9243 200.084 34.1911 199.784 34.7246V37.5015C200.081 38.0314 200.536 38.2964 201.148 38.2964C201.624 38.2964 202.002 38.1084 202.281 37.7324C202.564 37.3529 202.706 36.7907 202.706 36.0459ZM204.704 36.0405C204.704 35.4712 204.815 34.9591 205.037 34.5044C205.262 34.0496 205.574 33.6987 205.971 33.4517C206.372 33.2046 206.829 33.0811 207.341 33.0811C208.132 33.0811 208.771 33.355 209.258 33.9028C209.749 34.4507 209.994 35.1794 209.994 36.0889V36.1587C209.994 36.7244 209.885 37.2329 209.667 37.6841C209.452 38.1317 209.142 38.4808 208.737 38.7314C208.336 38.9821 207.874 39.1074 207.352 39.1074C206.564 39.1074 205.925 38.8335 205.434 38.2856C204.947 37.7378 204.704 37.0127 204.704 36.1104V36.0405ZM205.703 36.1587C205.703 36.8032 205.851 37.3206 206.148 37.7109C206.449 38.1012 206.85 38.2964 207.352 38.2964C207.856 38.2964 208.257 38.0994 208.555 37.7056C208.852 37.3081 209 36.7531 209 36.0405C209 35.4032 208.848 34.8875 208.544 34.4937C208.243 34.0962 207.842 33.8975 207.341 33.8975C206.85 33.8975 206.455 34.0926 206.154 34.4829C205.853 34.8732 205.703 35.4318 205.703 36.1587ZM213.05 36.5239H212.325V39H211.326V33.1885H212.325V35.6484H212.975L214.93 33.1885H216.133L213.834 35.9814L216.327 39H215.064L213.05 36.5239Z" fill="white"/>
<path d="M61.38 7.61786H65.3322V15.4185H65.4062C65.8058 14.7376 66.2203 14.1159 66.6051 13.4794L70.6165 7.61786H75.5159L69.6691 15.1373L75.8267 25.2766H71.1641L66.842 17.6536L65.3174 19.5186V25.2766H61.3652V7.61786H61.38Z" fill="white"/>
<path d="M83.0654 7.61761H87.0768V21.9163H94.0929V25.2764H83.0654V7.61761Z" fill="white"/>
<path d="M106.067 7.61761V25.2764H102.055V7.61761H106.067Z" fill="white"/>
<path d="M115.125 7.61761H125.916V10.8888H119.137V14.9298H125.472V18.1714H119.137V25.2764H115.125V7.61761Z" fill="white"/>
<path d="M145.04 17.8014H138.542V21.9903H145.795V25.2615H134.545V7.61761H145.44V10.8888H138.542V14.5597H145.04V17.8014Z" fill="white"/>
<path d="M163.425 25.2758L161.826 22.0785C161.175 20.85 160.745 19.9323 160.257 18.9109H160.198C159.828 19.9323 159.384 20.85 158.836 22.0785L157.371 25.2758H152.812L157.918 16.3502L152.989 7.63184H157.578L159.117 10.8587C159.635 11.9392 160.035 12.7977 160.449 13.7895H160.509C160.923 12.6645 161.263 11.88 161.707 10.8587L163.202 7.63184H167.761L162.788 16.2466L168.028 25.2906H163.425V25.2758Z" fill="white"/>
<path d="M13.7058 31.7218C15.2896 30.1084 16.7402 28.6282 18.2056 27.1332C18.398 27.3108 18.6348 27.518 18.8569 27.7549C24.3188 33.2168 29.7955 38.6935 35.2426 44.1702C35.8051 44.7327 36.3676 45.0288 37.1817 44.9991C38.7359 44.9399 40.3049 44.9843 41.8591 44.9843C43.9018 44.9695 45.0711 43.8002 45.0859 41.7427C45.1007 39.7149 45.0859 37.7018 45.0859 35.6739C45.0859 24.8833 45.0859 14.0927 45.0859 3.31684C45.0859 1.20016 43.9166 0.0456063 41.7999 0.0308043C40.2013 0.0308043 38.6027 -0.0284028 37.0041 0.0604089C36.4712 0.0900128 35.8347 0.341645 35.4498 0.696892C34.0437 1.99946 32.7115 3.37605 31.3645 4.73783C21.1363 14.9512 10.9082 25.1793 0.680046 35.4371C0.398808 35.7183 0.117572 36.1328 0.10277 36.488C0.0435624 38.3975 0.0287605 40.3217 0.10277 42.2312C0.147176 43.593 1.16851 44.8215 2.42668 44.8955C4.52856 45.014 6.64523 44.9251 8.74711 44.9251C8.82112 44.8067 8.90993 44.7031 8.98394 44.5847C7.51855 43.2377 6.03835 41.8907 4.61737 40.5882C6.18637 39.0044 7.63697 37.539 9.26518 35.8959C9.47241 36.192 9.63523 36.5176 9.87206 36.7693C12.344 39.2708 14.8455 41.7279 17.3026 44.2442C17.8059 44.7623 18.324 44.9991 19.0641 44.9843C21.3288 44.9399 23.6083 44.9695 25.873 44.9695C26.169 44.9695 26.4651 44.9251 26.9683 44.8955C22.4241 40.3661 18.0131 36.0144 13.7058 31.7218ZM26.7907 0.0160026C24.2152 0.0160026 21.6692 0.0456067 19.1233 0.00120085C18.3388 -0.0136011 17.8059 0.22323 17.273 0.770902C12.4032 5.67035 7.59256 10.6438 2.5747 15.3952C0.709652 17.1715 -0.0452502 18.8145 0.0139576 21.538C0.0287596 23.2551 0.0583662 24.9573 0.0583662 26.7631C9.02835 17.808 17.8651 8.95638 26.7907 0.0160026ZM8.76192 0.0160026C6.74885 0.0160026 4.80979 -0.0136016 2.85594 0.0308043C1.49416 0.0604082 0.250789 1.05214 0.161977 2.44352C0.0287596 4.501 0.132376 6.58807 0.132376 8.66034C3.00396 5.75916 5.84593 2.93199 8.76192 0.0160026Z" fill="white"/>
<path d="M13.7055 31.7216C18.1608 36.1474 22.6162 40.5584 27.0568 44.9842C26.8052 44.9842 26.3907 44.9694 25.8727 44.9694C22.7643 44.9398 21.2249 44.9694 20.8696 44.9694C20.2627 44.9694 19.6706 44.9842 19.0638 44.999C18.3237 45.0138 17.8056 44.7769 17.3023 44.2589C14.8452 41.7573 12.3437 39.2854 9.87175 36.7839C9.62012 36.5322 9.4573 36.2066 9.26487 35.9106C7.63666 37.5536 6.18607 39.019 4.61706 40.6028C6.21567 42.0682 7.81428 43.5336 9.41289 44.9842C7.10379 44.9842 4.77988 44.9842 2.47078 44.9842C2.45597 44.9842 2.44117 44.9842 2.42637 44.9842C1.18301 44.9546 0.294889 42.7047 0.117265 42.2458C-0.104764 41.6685 0.0432557 39.3742 0.117265 36.5026C0.132067 36.1474 0.413304 35.7181 0.694541 35.4517C10.9227 25.2087 21.1508 14.9658 31.3938 4.73765C32.7556 3.37587 34.073 1.99928 35.4791 0.696712C35.864 0.341465 36.5005 0.0898328 37.0333 0.0602289C38.632 -0.0285829 40.2306 0.0306243 41.8292 0.0306243C43.9607 0.0306243 45.1152 1.18518 45.1152 3.31666C45.1152 14.1073 45.1152 24.8979 45.1152 35.6737C45.1152 37.7016 45.1152 39.7147 45.1152 41.7425C45.1004 43.8148 43.9311 44.9842 41.8884 44.9842C40.3342 44.9842 38.7652 44.9398 37.211 44.999C36.3821 45.0286 35.8344 44.7473 35.2719 44.1701C29.8248 38.6785 24.3481 33.2166 18.8861 27.7547C18.6641 27.5327 18.4273 27.3254 18.2349 27.133C16.7399 28.6428 15.2893 30.123 13.7055 31.7216Z" fill="white"/>
<path d="M2.58894 15.3947C7.592 10.6285 12.4174 5.6698 17.2873 0.770353C17.8201 0.22268 18.3678 -0.0141504 19.1375 0.00065153C21.6835 0.0450574 24.2294 0.0154533 26.8049 0.0154533C17.8794 8.95583 9.04259 17.8074 0.0874023 26.7774" fill="white"/>
<path d="M8.76147 0.0153991C5.84549 2.93139 2.9295 5.84737 0.0283203 8.76336C0.0283203 5.81777 0.0283203 3.68629 0.0283203 2.87218C0.0283203 2.84257 0.0283212 2.75376 0.0431232 2.65015C0.146737 1.54 0.975648 0.799903 1.03486 0.755497C1.76015 0.133815 2.58906 0.0746065 2.8703 0.0450025C2.95911 0.0450025 3.03312 0.0450028 3.06272 0.0302008C3.95084 0.0005969 6.64479 0.000597124 8.76147 0.0153991Z" fill="white"/>
</svg>
