<svg width="169" height="46" viewBox="0 0 169 46" fill="none" xmlns="http://www.w3.org/2000/svg">
<path d="M61.4445 13.6179H65.3966V21.4186H65.4706C65.8703 20.7377 66.2847 20.116 66.6696 19.4795L70.6809 13.6179H75.5804L69.7336 21.1373L75.8912 31.2767H71.2286L66.9064 23.6536L65.3818 25.5187V31.2767H61.4297V13.6179H61.4445Z" fill="#231F20"/>
<path d="M83.1289 13.6177H87.1402V27.9164H94.1564V31.2764H83.1289V13.6177Z" fill="#231F20"/>
<path d="M106.13 13.6177V31.2764H102.119V13.6177H106.13Z" fill="#231F20"/>
<path d="M115.189 13.6177H125.98V16.8889H119.201V20.9298H125.536V24.1715H119.201V31.2764H115.189V13.6177Z" fill="#231F20"/>
<path d="M145.104 23.8014H138.606V27.9904H145.859V31.2616H134.609V13.6177H145.504V16.8889H138.606V20.5598H145.104V23.8014Z" fill="#231F20"/>
<path d="M163.488 31.2758L161.889 28.0785C161.238 26.85 160.809 25.9323 160.32 24.9109H160.261C159.891 25.9323 159.447 26.85 158.899 28.0785L157.434 31.2758H152.875L157.982 22.3502L153.053 13.6318H157.641L159.181 16.8587C159.699 17.9392 160.098 18.7977 160.513 19.7895H160.572C160.986 18.6645 161.327 17.88 161.771 16.8587L163.266 13.6318H167.825L162.852 22.2466L168.091 31.2906H163.488V31.2758Z" fill="#231F20"/>
<path d="M13.7692 31.7217C15.3531 30.1083 16.8036 28.6281 18.269 27.1331C18.4615 27.3108 18.6983 27.518 18.9203 27.7548C24.3822 33.2167 29.859 38.6935 35.3061 44.1702C35.8686 44.7327 36.431 45.0287 37.2452 44.9991C38.7994 44.9399 40.3684 44.9843 41.9226 44.9843C43.9652 44.9695 45.1346 43.8001 45.1494 41.7427C45.1642 39.7148 45.1494 37.7017 45.1494 35.6739C45.1494 24.8832 45.1494 14.0926 45.1494 3.31678C45.1494 1.2001 43.98 0.0455452 41.8634 0.0307433C40.2647 0.0307433 38.6661 -0.0284639 37.0675 0.0603479C36.5347 0.0899518 35.8982 0.341584 35.5133 0.696831C34.1071 1.9994 32.775 3.37599 31.428 4.73777C21.1998 14.9511 10.9717 25.1793 0.743522 35.437C0.462285 35.7183 0.181049 36.1327 0.166247 36.488C0.107039 38.3974 0.092237 40.3217 0.166247 42.2311C0.210653 43.5929 1.23199 44.8215 2.49016 44.8955C4.59203 45.0139 6.70871 44.9251 8.81059 44.9251C8.8846 44.8067 8.97341 44.703 9.04742 44.5846C7.58203 43.2377 6.10183 41.8907 4.68084 40.5881C6.24985 39.0043 7.70044 37.5389 9.32866 35.8959C9.53588 36.1919 9.69871 36.5176 9.93554 36.7692C12.4075 39.2707 14.909 41.7279 17.3661 44.2442C17.8694 44.7623 18.3875 44.9991 19.1276 44.9843C21.3923 44.9399 23.6718 44.9695 25.9365 44.9695C26.2325 44.9695 26.5285 44.9251 27.0318 44.8955C22.4876 40.3661 18.0766 36.0143 13.7692 31.7217ZM26.8542 0.0159415C24.2786 0.0159415 21.7327 0.0455457 19.1868 0.00113981C18.4023 -0.0136621 17.8694 0.223169 17.3365 0.770841C12.4667 5.67029 7.65604 10.6437 2.63818 15.3952C0.773129 17.1714 0.0182263 18.8144 0.0774342 21.538C0.0922361 23.255 0.121843 24.9572 0.121843 26.7631C9.09183 17.8079 17.9286 8.95632 26.8542 0.0159415ZM8.82539 0.0159415C6.81233 0.0159415 4.87327 -0.0136626 2.91941 0.0307433C1.55763 0.0603472 0.314265 1.05208 0.225454 2.44346C0.0922361 4.50093 0.195853 6.58801 0.195853 8.66028C3.06743 5.7591 5.90941 2.93193 8.82539 0.0159415Z" fill="#231F20"/>
<path d="M13.7699 31.7216C18.2253 36.1473 22.6807 40.5583 27.1213 44.9841C26.8696 44.9841 26.4552 44.9693 25.9371 44.9693C22.8287 44.9397 21.2893 44.9693 20.9341 44.9693C20.3272 44.9693 19.7351 44.9841 19.1282 44.9989C18.3881 45.0137 17.8701 44.7769 17.3668 44.2588C14.9097 41.7573 12.4081 39.2853 9.93621 36.7838C9.68457 36.5322 9.52175 36.2065 9.32932 35.9105C7.70111 37.5535 6.25052 39.0189 4.68151 40.6027C6.28012 42.0681 7.87873 43.5335 9.47734 44.9841C7.16824 44.9841 4.84433 44.9841 2.53523 44.9841C2.52043 44.9841 2.50563 44.9841 2.49082 44.9841C1.24746 44.9545 0.359342 42.7046 0.181719 42.2457C-0.0403108 41.6685 0.107709 39.3742 0.181719 36.5026C0.196521 36.1473 0.477757 35.7181 0.758994 35.4516C10.9871 25.2087 21.2153 14.9657 31.4583 4.73759C32.82 3.37581 34.1374 1.99922 35.5436 0.696651C35.9284 0.341404 36.5649 0.0897717 37.0978 0.0601678C38.6964 -0.0286439 40.295 0.0305632 41.8936 0.0305632C44.0251 0.0305632 45.1797 1.18512 45.1797 3.3166C45.1797 14.1072 45.1797 24.8978 45.1797 35.6737C45.1797 37.7015 45.1797 39.7146 45.1797 41.7425C45.1649 43.8147 43.9955 44.9841 41.9528 44.9841C40.3986 44.9841 38.8296 44.9397 37.2754 44.9989C36.4465 45.0285 35.8988 44.7473 35.3364 44.17C29.8892 38.6785 24.4125 33.2165 18.9506 27.7546C18.7286 27.5326 18.4917 27.3254 18.2993 27.1329C16.8043 28.6427 15.3537 30.1229 13.7699 31.7216Z" fill="#231F20"/>
<path d="M2.65388 15.3947C7.65694 10.6285 12.4824 5.6698 17.3522 0.770353C17.8851 0.22268 18.4328 -0.0141504 19.2025 0.00065153C21.7484 0.0450574 24.2943 0.0154533 26.8699 0.0154533C17.9443 8.95583 9.10753 17.8074 0.152344 26.7774" fill="#231F20"/>
<path d="M8.82495 0.015338C5.90897 2.93132 2.99298 5.84731 0.0917969 8.7633C0.0917969 5.81771 0.0917969 3.68622 0.0917969 2.87212C0.0917969 2.84251 0.0917978 2.7537 0.1066 2.65009C0.210213 1.53994 1.03912 0.799842 1.09833 0.755436C1.82363 0.133754 2.65254 0.0745454 2.93377 0.0449415C3.02259 0.0449415 3.09659 0.0449417 3.1262 0.0301398C4.01432 0.000535864 6.70827 0.000536089 8.82495 0.015338Z" fill="#231F20"/>
</svg>
