<svg width="17" height="17" viewBox="0 0 17 17" fill="none" xmlns="http://www.w3.org/2000/svg">
    <path d="M8.5 2.05884L11.5 0.558838L15 1.55884L16.5 3.55884L16 6.55884L13 10.0588L10 13.0588L8 14.0588L6.5 12.5588L4.5 10.5588L1 6.55884L0.5 4.5L1.5 2.55884L2.5 1.05884L4.5 0.558838L8.5 2.05884Z"
          />
    <path class="center" d="M15.5917 1.39709C13.743 -0.465627 10.7339 -0.465627 8.88456 1.39667L8.50003 1.78339L8.11591 1.39685C6.26639 -0.465697 3.25769 -0.465486 1.40818 1.39685C0.500072 2.3114 0 3.52447 0 4.81224C0 6.10044 0.500072 7.31329 1.40831 8.22823L8.08941 14.9442C8.20433 15.06 8.35228 15.1177 8.5 15.1177C8.64772 15.1177 8.79547 15.0598 8.91059 14.944L15.5917 8.22823C16.4997 7.3135 17 6.10047 17 4.81245C17 3.52447 16.4997 2.31161 15.5917 1.39709ZM14.7697 7.31245L8.5 13.6152L2.23049 7.31266C1.56141 6.639 1.19299 5.75098 1.19299 4.81245C1.19299 3.87392 1.56141 2.98591 2.23049 2.31224C2.92838 1.60908 3.84499 1.25773 4.76179 1.25773C5.6788 1.25773 6.5958 1.60951 7.2937 2.31267L8.08901 3.11247C8.31924 3.34426 8.68053 3.34426 8.91079 3.11247L9.7063 2.31224C11.1023 0.906135 13.3735 0.906135 14.7695 2.31224C15.4384 2.98594 15.807 3.87392 15.807 4.81245C15.807 5.75098 15.4384 6.63878 14.7697 7.31245Z"
         />
</svg>
