<svg width="15" height="15" viewBox="0 0 15 15" fill="none" xmlns="http://www.w3.org/2000/svg">
<g clip-path="url(#clip0)">
<path d="M8.87423 7.51363L14.7149 1.67275C15.095 1.29283 15.095 0.678541 14.7149 0.298616C14.335 -0.0813094 13.7207 -0.0813094 13.3408 0.298616L7.49992 6.1395L1.65921 0.298616C1.27911 -0.0813094 0.665002 -0.0813094 0.285077 0.298616C-0.0950258 0.678541 -0.0950258 1.29283 0.285077 1.67275L6.12578 7.51363L0.285077 13.3545C-0.0950258 13.7344 -0.0950258 14.3487 0.285077 14.7287C0.474417 14.9182 0.72337 15.0134 0.972146 15.0134C1.22092 15.0134 1.4697 14.9182 1.65921 14.7287L7.49992 8.88777L13.3408 14.7287C13.5303 14.9182 13.7791 15.0134 14.0279 15.0134C14.2766 15.0134 14.5254 14.9182 14.7149 14.7287C15.095 14.3487 15.095 13.7344 14.7149 13.3545L8.87423 7.51363Z" fill="#4E4E4E"/>
</g>
<defs>
<clipPath id="clip0">
<rect width="15" height="15" fill="white"/>
</clipPath>
</defs>
</svg>
