<svg width="11" height="11" viewBox="0 0 11 11" fill="none" xmlns="http://www.w3.org/2000/svg">
<g clip-path="url(#clip0)">
<path d="M6.50777 5.50925L10.791 1.22594C11.0697 0.947324 11.0697 0.496848 10.791 0.218236C10.5123 -0.0603756 10.0619 -0.0603756 9.78325 0.218236L5.49994 4.50155L1.21676 0.218236C0.938015 -0.0603756 0.487668 -0.0603756 0.209057 0.218236C-0.0696856 0.496848 -0.0696856 0.947324 0.209057 1.22594L4.49224 5.50925L0.209057 9.79256C-0.0696856 10.0712 -0.0696856 10.5216 0.209057 10.8003C0.347906 10.9392 0.530472 11.0091 0.712907 11.0091C0.895342 11.0091 1.07778 10.9392 1.21676 10.8003L5.49994 6.51695L9.78325 10.8003C9.92223 10.9392 10.1047 11.0091 10.2871 11.0091C10.4695 11.0091 10.652 10.9392 10.791 10.8003C11.0697 10.5216 11.0697 10.0712 10.791 9.79256L6.50777 5.50925Z" fill="#4E4E4E"/>
</g>
<defs>
<clipPath id="clip0">
<rect width="11" height="11" fill="white"/>
</clipPath>
</defs>
</svg>
