<svg width="69" height="69" viewBox="0 0 69 69" fill="none" xmlns="http://www.w3.org/2000/svg">
<circle cx="34.5" cy="34.5" r="34.5" fill="#F5F5F5"/>
<path d="M48.375 19.625H20.625V47.375H48.375V19.625Z" fill="#E5ECF0"/>
<path d="M34.5 36.4184L48.375 47.375V25.7439L34.5 36.4184Z" fill="#CFD8DC"/>
<path d="M49.5312 19.625H48.375L34.5 30.5816L20.625 19.625H19.4688C17.554 19.625 16 21.179 16 23.0938V43.9062C16 45.821 17.554 47.375 19.4688 47.375H20.625V25.7439L34.5 36.4161L48.375 25.7416V47.375H49.5312C51.446 47.375 53 45.821 53 43.9062V23.0938C53 21.179 51.446 19.625 49.5312 19.625Z" fill="#F44336"/>
</svg>
