<svg width="69" height="69" viewBox="0 0 69 69" fill="none" xmlns="http://www.w3.org/2000/svg">
<path d="M34.5 69C53.5538 69 69 53.5538 69 34.5C69 15.4462 53.5538 0 34.5 0C15.4462 0 0 15.4462 0 34.5C0 53.5538 15.4462 69 34.5 69Z" fill="#6F3FAA"/>
<path d="M49.4673 18.927C41.0698 16.8988 32.6573 14.5264 24.0455 17.5406C18.4697 19.6314 18.4697 25.6719 18.7021 30.783C18.7021 32.1769 17.0758 34.0356 17.7727 35.6618C19.1666 40.3083 20.3283 44.9547 25.2071 47.2779C25.9041 47.7426 25.2071 48.6718 25.6717 49.3688C25.4394 49.3688 24.9747 49.6012 24.9747 49.8335C24.9747 50.9471 25.4744 52.6504 25.1425 53.7484L39.9675 68.5673C55.2082 66.1401 67.1199 53.7339 68.7958 38.2556L49.4673 18.927Z" fill="#512D84"/>
<path d="M52.7511 24.2474L52.7398 24.2019C51.818 20.4752 47.6621 16.4764 43.8455 15.6445L43.8025 15.6356C37.6295 14.458 31.3703 14.458 25.1985 15.6356L25.1542 15.6445C21.339 16.4764 17.183 20.4755 16.2599 24.2019L16.2497 24.2474C15.1101 29.4517 15.1101 34.7296 16.2497 39.9339L16.2599 39.9794C17.1437 43.5469 20.9901 47.3621 24.6642 48.4113V52.5712C24.6642 54.077 26.499 54.8164 27.5424 53.7298L31.7572 49.3487C32.6714 49.3998 33.5861 49.4284 34.5005 49.4284C37.6078 49.4284 40.7165 49.1345 43.8024 48.5458L43.8454 48.5369C47.662 47.705 51.8179 43.706 52.7397 39.9796L52.751 39.934C53.8906 34.7296 53.8906 29.4519 52.7511 24.2474ZM49.4155 39.1793C48.8001 41.6106 45.6447 44.6331 43.1375 45.1916C39.8553 45.8158 36.5469 46.0826 33.2419 45.991C33.1761 45.9892 33.1129 46.0148 33.0672 46.0619C32.5981 46.5433 29.9899 49.2211 29.9899 49.2211L26.7167 52.5805C26.4773 52.8301 26.0569 52.6602 26.0569 52.3159V45.4245C26.0569 45.3106 25.9756 45.214 25.8637 45.1919C25.8631 45.1916 25.8625 45.1916 25.8619 45.1915C23.3547 44.633 20.2004 41.6105 19.5838 39.1792C18.5581 34.4751 18.5581 29.7062 19.5838 25.0021C20.2004 22.5708 23.3547 19.5483 25.8619 18.9898C31.5943 17.8996 37.4064 17.8996 43.1376 18.9898C45.646 19.5483 48.8002 22.5708 49.4157 25.0021C50.4424 29.7064 50.4424 34.4752 49.4155 39.1793Z" fill="white"/>
<path d="M39.9537 42.3603C39.5683 42.2432 39.2011 42.1646 38.8597 42.0233C35.3247 40.5566 32.0714 38.6645 29.4946 35.7642C28.0291 34.115 26.8822 32.2529 25.9127 30.2824C25.4528 29.3479 25.0654 28.3769 24.6704 27.412C24.3103 26.5322 24.8407 25.6234 25.3992 24.9603C25.9233 24.3381 26.5978 23.8621 27.3282 23.5111C27.8983 23.2372 28.4605 23.3952 28.877 23.8783C29.7769 24.923 30.6038 26.0211 31.2731 27.2321C31.6848 27.9769 31.5719 28.8874 30.8257 29.3943C30.6443 29.5174 30.4791 29.6622 30.3102 29.8013C30.1619 29.9232 30.0226 30.0464 29.921 30.2115C29.7354 30.5135 29.7265 30.8699 29.8459 31.1984C30.766 33.7267 32.3167 35.6929 34.8618 36.7521C35.269 36.9215 35.6779 37.1186 36.1472 37.064C36.9328 36.9723 37.1873 36.1103 37.7379 35.6601C38.2761 35.22 38.9639 35.2142 39.5435 35.5811C40.1234 35.9482 40.6854 36.342 41.2441 36.7402C41.7926 37.131 42.3386 37.5131 42.8443 37.9587C43.3308 38.3872 43.4984 38.9491 43.2244 39.5304C42.7231 40.5952 41.9933 41.4807 40.9409 42.0462C40.6438 42.2055 40.2888 42.2571 39.9537 42.3603C39.5683 42.2432 40.2888 42.2571 39.9537 42.3603Z" fill="white"/>
<path d="M34.5095 22.2936C39.1332 22.4232 42.931 25.4917 43.7449 30.063C43.8836 30.8419 43.9329 31.6381 43.9946 32.4288C44.0206 32.7612 43.8322 33.0771 43.4735 33.0816C43.1029 33.086 42.9362 32.7758 42.9119 32.4436C42.8643 31.7857 42.8313 31.1246 42.7406 30.4724C42.2621 27.0279 39.5155 24.1783 36.0871 23.5668C35.5711 23.4748 35.0433 23.4507 34.5206 23.3958C34.1903 23.3612 33.7577 23.3412 33.6845 22.9305C33.6232 22.5862 33.9137 22.312 34.2416 22.2944C34.3304 22.2891 34.4201 22.2933 34.5095 22.2936C39.1335 22.4232 34.4201 22.2933 34.5095 22.2936Z" fill="white"/>
<path d="M41.5364 31.4028C41.5288 31.4606 41.5249 31.5964 41.4909 31.7241C41.3683 32.1882 40.6642 32.2463 40.5024 31.778C40.4543 31.6391 40.4471 31.4809 40.4469 31.3313C40.4452 30.3521 40.2325 29.3737 39.7385 28.5215C39.2309 27.6457 38.4552 26.9097 37.5456 26.4641C36.9955 26.1948 36.4008 26.0273 35.7979 25.9277C35.5344 25.884 35.2681 25.8578 35.0033 25.8208C34.6824 25.7762 34.511 25.5718 34.5263 25.2556C34.5405 24.9594 34.7571 24.7461 35.08 24.7645C36.141 24.8246 37.166 25.0543 38.1095 25.5537C40.0277 26.5697 41.1237 28.1732 41.4436 30.3145C41.458 30.4116 41.4812 30.5076 41.4886 30.6049C41.5067 30.845 41.5181 31.0856 41.5364 31.4028C41.5288 31.4604 41.5181 31.0856 41.5364 31.4028Z" fill="white"/>
<path d="M38.6607 31.2907C38.2739 31.2977 38.0669 31.0834 38.0269 30.729C37.9993 30.4819 37.9772 30.2312 37.9181 29.9905C37.802 29.5165 37.5501 29.0775 37.1515 28.787C36.9633 28.65 36.75 28.5501 36.5267 28.4854C36.243 28.4034 35.9481 28.426 35.6653 28.3567C35.3579 28.2814 35.1878 28.0324 35.2362 27.7441C35.2801 27.4816 35.5354 27.2767 35.8223 27.2976C37.6149 27.427 38.8961 28.3538 39.079 30.4642C39.0921 30.6131 39.1072 30.7704 39.0742 30.9131C39.0173 31.1566 38.8367 31.2789 38.6607 31.2907C38.2738 31.2976 38.8367 31.2789 38.6607 31.2907Z" fill="white"/>
<path d="M52.7508 24.2477L52.7395 24.2021C52.2228 22.1131 50.6894 19.9388 48.7696 18.2844L46.1741 20.5846C47.7174 21.8143 49.0398 23.5179 49.4155 25.0022C50.4424 29.7065 50.4424 34.4752 49.4155 39.1796C48.8 41.6109 45.6445 44.6334 43.1374 45.1919C39.8552 45.8161 36.5468 46.0828 33.2419 45.9913C33.1761 45.9894 33.1129 46.015 33.0672 46.0622C32.5981 46.5436 29.9898 49.2213 29.9898 49.2213L26.7166 52.5808C26.4773 52.8304 26.0568 52.6607 26.0568 52.3161V45.4247C26.0568 45.3109 25.9756 45.2142 25.8637 45.1921C25.863 45.1921 25.8625 45.1919 25.8618 45.1919C24.4369 44.8745 22.8037 43.7609 21.5455 42.4129L18.981 44.6854C20.5826 46.4278 22.6485 47.8364 24.6638 48.4118V52.5718C24.6638 54.0775 26.4986 54.817 27.5419 53.7303L31.7567 49.3492C32.671 49.4003 33.5854 49.4289 34.5 49.4289C37.6073 49.4289 40.7161 49.135 43.802 48.5463L43.8449 48.5375C47.6615 47.7056 51.8174 43.7069 52.7392 39.9802L52.7505 39.9347C53.8902 34.7299 53.8902 29.4522 52.7508 24.2477Z" fill="#D1D1D1"/>
<path d="M39.9542 42.3605C40.2893 42.2573 39.5688 42.2434 39.9542 42.3605V42.3605Z" fill="white"/>
<path d="M42.8445 37.9585C42.3387 37.5131 41.7925 37.1308 41.2443 36.74C40.6856 36.3418 40.1236 35.948 39.5437 35.5809C38.9641 35.214 38.2763 35.2198 37.7381 35.6598C37.1874 36.1101 36.9331 36.9721 36.1473 37.0638C35.6782 37.1184 35.2692 36.9211 34.8619 36.7518C33.2961 36.1004 32.108 35.1042 31.21 33.8464L29.3018 35.5377C29.3666 35.6128 29.4284 35.6899 29.4943 35.764C32.0713 38.6643 35.3247 40.5564 38.8595 42.0231C39.2006 42.1646 39.5681 42.2433 39.9535 42.3601C39.5681 42.243 40.2888 42.257 39.9535 42.3601C40.2888 42.257 40.6435 42.2051 40.9409 42.0458C41.9936 41.4804 42.7231 40.5947 43.2244 39.53C43.4985 38.9489 43.331 38.387 42.8445 37.9585Z" fill="#D1D1D1"/>
<path d="M34.5217 22.2955C34.5176 22.2955 34.5137 22.295 34.5096 22.295C34.5057 22.2948 34.5108 22.295 34.5217 22.2955Z" fill="white"/>
<path d="M34.5107 22.2937C34.5147 22.2937 34.5184 22.2941 34.5223 22.2941C34.7789 22.3033 38.9524 22.4182 34.5107 22.2937Z" fill="white"/>
<path d="M41.1422 25.0444L40.3286 25.7656C41.6071 27.0095 42.4888 28.658 42.7408 30.4723C42.8313 31.1248 42.8646 31.7856 42.9122 32.4435C42.9363 32.7759 43.1029 33.086 43.4738 33.0817C43.8327 33.0773 44.0209 32.7615 43.9949 32.4289C43.9331 31.6384 43.8839 30.8419 43.7452 30.0631C43.389 28.0621 42.4609 26.3491 41.1422 25.0444Z" fill="#D1D1D1"/>
<path d="M41.4435 30.3141C41.2105 28.7538 40.5632 27.4805 39.488 26.5105L38.6768 27.2295C39.0963 27.6018 39.4592 28.0391 39.7387 28.5215C40.2326 29.3736 40.4454 30.352 40.447 31.3312C40.4473 31.4808 40.4545 31.639 40.5026 31.7782C40.6647 32.2468 41.3684 32.1887 41.4911 31.7243C41.525 31.5963 41.5289 31.4606 41.5366 31.403C41.5289 31.4608 41.518 31.0859 41.5366 31.403C41.518 31.0859 41.5067 30.8452 41.4885 30.6048C41.4814 30.5071 41.4581 30.4112 41.4435 30.3141Z" fill="#D1D1D1"/>
<path d="M41.536 31.403C41.5177 31.0857 41.5283 31.4605 41.536 31.403V31.403Z" fill="white"/>
<path d="M38.6596 31.291C38.6656 31.2906 38.6713 31.2875 38.677 31.2869C38.6609 31.2869 38.6362 31.2873 38.6108 31.2882C38.6273 31.2886 38.6423 31.2911 38.6596 31.291Z" fill="white"/>
<path d="M38.6603 31.2912C38.643 31.2914 38.6276 31.2889 38.6109 31.2883C38.5272 31.2906 38.4408 31.2951 38.6603 31.2912Z" fill="white"/>
<path d="M38.6776 31.2869C38.6716 31.2875 38.6659 31.2906 38.6602 31.291C38.7048 31.2879 38.7009 31.2869 38.6776 31.2869Z" fill="white"/>
<path d="M37.8444 27.9673L37.0186 28.6993C37.0641 28.727 37.1087 28.7558 37.152 28.7872C37.5506 29.0776 37.8025 29.5167 37.9187 29.9907C37.9777 30.2313 37.9995 30.4817 38.0274 30.7292C38.0655 31.0678 38.2579 31.2761 38.6118 31.2882C38.6375 31.2875 38.6628 31.287 38.6789 31.2868C38.8492 31.268 39.02 31.1486 39.0745 30.913C39.1076 30.7705 39.0925 30.613 39.0794 30.4641C38.9767 29.2842 38.5306 28.4747 37.8444 27.9673Z" fill="#D1D1D1"/>
</svg>
