<svg width="374" height="488" viewBox="0 0 374 488" fill="none" xmlns="http://www.w3.org/2000/svg">
<path d="M344.544 270.84C340.921 267.216 336.102 265.22 330.977 265.22C325.852 265.22 321.033 267.216 317.409 270.84L300.747 287.501L276.311 263.065L351.193 188.186C363.272 193.38 376.387 196.128 389.925 196.128C389.927 196.128 389.925 196.128 389.927 196.128C416.178 196.128 440.845 185.888 459.377 167.298C484.674 141.922 494.114 104.777 484.01 70.3577C483.423 68.3555 481.82 66.8112 479.799 66.2965C477.778 65.78 475.633 66.3722 474.159 67.851L412.399 129.799C408.692 128.296 399.355 123.171 382.073 105.941C364.792 88.7115 359.634 79.3891 358.117 75.686L419.874 13.7348C421.348 12.256 421.931 10.1109 421.411 8.08972C420.89 6.06858 419.342 4.47095 417.336 3.88906C408.434 1.3084 399.21 0 389.919 0C363.666 0 339.004 10.2365 320.475 28.8262C291.392 58.0001 284.546 101.043 299.849 136.776L224.934 211.689L148.258 135.013C148.191 134.883 148.145 134.748 148.07 134.619L113.022 74.5342C112.416 73.4961 111.594 72.6061 110.607 71.9209L51.4845 30.899C48.2152 28.6299 43.7942 29.0293 40.9828 31.8407L14.6426 58.1809C11.8295 60.9923 11.4335 65.415 13.7009 68.6826L54.7228 127.805C55.408 128.792 56.298 129.616 57.3361 130.221L117.423 165.269C117.555 165.346 117.695 165.403 117.831 165.472L194.49 242.13L136.803 299.817C124.724 294.623 111.611 291.876 98.0722 291.876C71.8181 291.876 47.153 302.114 28.6201 320.705C3.32317 346.081 -6.11455 383.228 3.99114 417.642C4.5782 419.645 6.17927 421.189 8.20213 421.704C10.2233 422.217 12.3684 421.628 13.842 420.149L75.6021 358.2C79.3087 359.704 88.6448 364.833 105.924 382.057C123.209 399.289 128.367 408.609 129.882 412.312L68.1253 474.263C66.6516 475.742 66.068 477.887 66.5879 479.909C67.1096 481.93 68.6573 483.527 70.6629 484.108C79.5635 486.69 88.7877 488 98.0808 488C124.33 488 148.993 477.762 167.523 459.172C186.016 440.62 196.178 415.979 196.139 389.784C196.118 376.285 193.369 363.214 188.19 351.179L245.867 293.504L270.303 317.94L253.643 334.6C250.019 338.226 248.022 343.044 248.022 348.17C248.022 353.296 250.017 358.113 253.641 361.737L371.336 479.43C374.96 483.054 379.777 485.049 384.902 485.049C390.027 485.049 394.846 483.054 398.471 479.43L462.232 415.668C465.858 412.044 467.855 407.225 467.855 402.098C467.855 396.973 465.859 392.154 462.235 388.53L344.544 270.84ZM386.203 437.565C382.008 441.762 375.209 441.762 371.017 437.565L295.51 362.059C291.317 357.867 291.317 351.069 295.51 346.873C299.704 342.679 306.503 342.679 310.696 346.877L386.202 422.38C390.395 426.572 390.397 433.372 386.203 437.565ZM420.37 403.398C416.178 407.592 409.376 407.592 405.184 403.398L329.68 327.891C325.487 323.699 325.487 316.899 329.679 312.707C333.872 308.513 340.673 308.513 344.865 312.707L420.37 388.214C424.562 392.407 424.562 399.206 420.37 403.398Z" fill="#F8F9FB"/>
</svg>
