<svg width="76" height="76" viewBox="0 0 76 76" fill="none" xmlns="http://www.w3.org/2000/svg">
<g clip-path="url(#clip0)">
<path d="M74.993 36.639L66.4648 30.1644C65.6935 29.5789 64.6608 29.4796 63.7928 29.9122C62.9276 30.3409 62.3795 31.2249 62.3795 32.1925V36.1542H59.8568V32.1503C59.8568 30.7439 58.7168 29.6036 57.3109 29.6036H52.2424V20.1482C52.2424 18.7415 51.1021 17.6015 49.6962 17.6015H41.7771V14.8989H43.9089C45.315 14.8989 46.4553 13.7587 46.4553 12.3526C46.4553 10.9465 45.315 9.8067 43.9089 9.8067H27.4597C26.0539 9.8067 24.9136 10.9465 24.9136 12.3526C24.9136 13.7587 26.0539 14.8989 27.4597 14.8989H29.5931V17.6015H19.7498C18.3437 17.6015 17.2034 18.7415 17.2034 20.1482V25.1182H12.2309C10.8245 25.1182 9.68448 26.2582 9.68448 27.6643V33.4889H5.09199V26.2646C5.09199 24.8585 3.95197 23.7185 2.54587 23.7185C1.13976 23.7182 0 24.8585 0 26.2644V52.8965C0 54.3026 1.13976 55.4424 2.54612 55.4424C3.95223 55.4424 5.09225 54.3023 5.09225 52.8965V45.6719H9.68499V51.643C9.68499 53.0494 10.825 54.1891 12.2314 54.1891H18.6343L27.6172 65.2519C28.1008 65.8471 28.827 66.1927 29.5936 66.1927H57.3114C58.7175 66.1927 59.8573 65.0522 59.8573 63.6464V60.2822H62.38V63.6464C62.38 64.641 62.9588 65.5435 63.8618 65.9598C64.2022 66.1161 64.5656 66.1925 64.9259 66.1925C65.5226 66.1925 66.112 65.9825 66.5834 65.5792L75.1119 58.2698C75.6762 57.7854 76.0005 57.0796 76.0005 56.3361V38.6664C76 37.8712 75.6271 37.1203 74.993 36.639Z" fill="#1777BD"/>
<path d="M68 40C71.9282 45.5563 72.4744 51.6436 68 57.0644" stroke="white" stroke-width="2" stroke-linecap="round"/>
</g>
<defs>
<clipPath id="clip0">
<rect width="76" height="76" fill="white"/>
</clipPath>
</defs>
</svg>
