<svg width="64" height="64" viewBox="0 0 64 64" fill="none" xmlns="http://www.w3.org/2000/svg">
<path d="M32.0009 17.8192C21.4696 17.8192 12.5723 22.2198 12.5723 27.4286C12.5893 28.2812 12.8228 29.1155 13.2509 29.853C17.0648 26.2642 24.1909 24 32.0009 24C39.8109 24 46.937 26.2642 50.7509 29.853C51.179 29.1155 51.4125 28.2812 51.4295 27.4286C51.4295 22.2198 42.5321 17.8192 32.0009 17.8192Z" fill="#1777BD"/>
<path d="M32 8C14.3544 8 0 16.72 0 27.4286V36.5715C0 47.28 14.3544 56 32 56C49.6456 56 64 47.28 64 36.5714V27.4285C64 16.72 49.6456 8 32 8ZM4.03425 30.8229C3.93675 30.8449 3.83712 30.8564 3.73712 30.8571C3.21762 30.8619 2.76125 30.5136 2.6285 30.0114C2.40088 29.1693 2.28562 28.3009 2.28562 27.4285C2.28725 26.9965 2.31787 26.565 2.37713 26.1371C2.45913 25.5123 3.03225 25.0722 3.65712 25.1542C4.282 25.2362 4.722 25.8094 4.64 26.4342C4.59437 26.7638 4.57137 27.0959 4.57137 27.4285C4.57375 28.0999 4.662 28.7681 4.83425 29.4171C5 30.026 4.64237 30.6544 4.03425 30.8229ZM6.32 22.3771C6.1025 22.678 5.75413 22.8564 5.38287 22.8571C5.14975 22.8575 4.92213 22.7856 4.7315 22.6514C4.4815 22.4766 4.31187 22.2092 4.26038 21.9086C4.20888 21.608 4.27975 21.2994 4.45725 21.0514C7.38288 16.9142 13.1544 13.5085 20.2859 11.7028C20.8976 11.5461 21.5206 11.9146 21.6782 12.5261C21.8359 13.1376 21.4685 13.7613 20.8573 13.9199C14.2286 15.6 8.93725 18.6742 6.32 22.3771ZM32 39.3257C19.8286 39.3257 10.2858 34.1029 10.2858 27.4286C10.2858 20.7544 19.8286 15.5314 32 15.5314C44.1714 15.5314 53.7142 20.7542 53.7142 27.4285C53.7142 34.1027 44.1714 39.3257 32 39.3257ZM53.1543 39.3942C52.9766 39.496 52.7761 39.5511 52.5714 39.5542C52.1649 39.554 51.7897 39.3359 51.5885 38.9829C51.271 38.4394 51.4492 37.7418 51.9885 37.4171C56.7885 34.6058 59.4285 31.0629 59.4285 27.4285C59.4261 26.7571 59.3379 26.0889 59.1656 25.4399C59.0015 24.8307 59.3623 24.204 59.9714 24.0399C60.5805 23.8757 61.2073 24.2365 61.3714 24.8456C61.599 25.6877 61.7142 26.5561 61.7142 27.4285C61.7142 31.9086 58.6744 36.16 53.1543 39.3942Z" fill="#1777BD"/>
</svg>
