<svg width="52" height="52" viewBox="0 0 52 52" fill="none" xmlns="http://www.w3.org/2000/svg">
<path d="M21.2557 17.8635L18.6459 34.1039H22.8173L25.4254 17.8635H21.2557ZM33.8381 24.4789C32.3804 23.7591 31.4867 23.2732 31.4867 22.537C31.5046 21.8676 32.2424 21.1817 33.8901 21.1817C35.2453 21.1477 36.2415 21.4662 36.9971 21.7831L37.3757 21.952L37.9428 18.5542C37.1189 18.2357 35.8125 17.8847 34.1988 17.8847C30.0795 17.8847 27.1788 20.0265 27.1608 23.0897C27.1268 25.3501 29.2375 26.6045 30.8171 27.3569C32.4308 28.1288 32.9801 28.6293 32.9801 29.3151C32.9623 30.3681 31.6753 30.8539 30.4744 30.8539C28.8105 30.8539 27.9167 30.6037 26.5598 30.017L26.0106 29.7667L25.4272 33.2979C26.4071 33.7335 28.2092 34.1169 30.0796 34.1365C34.4574 34.1365 37.306 32.0272 37.3418 28.7626C37.3561 26.9718 36.2431 25.6001 33.8381 24.4789ZM48.6369 17.9138H45.4096C44.4151 17.9138 43.6594 18.1998 43.2288 19.2204L37.0326 34.1039H41.4104L42.6161 30.8815H47.5139L48.1395 34.1169H52.0006L48.6369 17.9138ZM43.8302 27.6296C43.9146 27.6378 45.5105 22.3694 45.5105 22.3694L46.7812 27.6296C46.7812 27.6296 44.6541 27.6296 43.8302 27.6296ZM15.1603 17.8635L11.0734 28.8973L10.6282 26.7214C9.87252 24.2107 7.50336 21.4824 4.85938 20.1272L8.60177 34.0876H13.0154L19.5739 17.8653H15.1603V17.8635Z" fill="#2394BC"/>
<path d="M9.25279 19.9583C8.9343 18.7199 7.91859 17.8848 6.53912 17.8669H0.0666566L0 18.1674C5.04897 19.4122 9.28683 23.2422 10.6617 26.8449L9.25279 19.9583Z" fill="#EFC75E"/>
</svg>
