<svg width="13" height="13" viewBox="0 0 13 13" fill="none" xmlns="http://www.w3.org/2000/svg">
<path d="M7.3582 5.0832H6.10645V3.83145C6.10645 3.54453 5.87539 3.31348 5.58848 3.31348C5.30156 3.31348 5.07051 3.54453 5.07051 3.83145V5.0832H3.81875C3.53184 5.0832 3.30078 5.31426 3.30078 5.60117C3.30078 5.88809 3.53184 6.11914 3.81875 6.11914H5.07051V7.3709C5.07051 7.65781 5.30156 7.88887 5.58848 7.88887C5.87539 7.88887 6.10645 7.65781 6.10645 7.3709V6.11914H7.3582C7.64512 6.11914 7.87617 5.88809 7.87617 5.60117C7.87617 5.31426 7.64258 5.0832 7.3582 5.0832Z" fill="#4E4E4E"/>
<path d="M5.59101 9.86943C3.23223 9.86943 1.32031 7.96006 1.32031 5.60127C1.32031 3.24248 3.23223 1.33311 5.59101 1.33311C7.9498 1.33311 9.85918 3.24502 9.85918 5.60127C9.85918 7.95752 7.94726 9.86943 5.59101 9.86943ZM12.5684 11.8499L9.6916 8.97315C10.4457 8.05654 10.9002 6.88096 10.9002 5.60127C10.9002 2.66865 8.52363 0.289551 5.58848 0.289551C2.65332 0.289551 0.279297 2.66865 0.279297 5.60127C0.279297 8.53389 2.65586 10.913 5.59101 10.913C6.8707 10.913 8.04375 10.461 8.96035 9.70693L11.8371 12.5837C11.9691 12.7183 12.3728 12.7843 12.5709 12.5837C12.7715 12.3806 12.7715 12.053 12.5684 11.8499Z" fill="#4E4E4E"/>
</svg>
